<?xml version="1.0" encoding="UTF-8" standalone="no"?>
<!-- Created with Inkscape (http://www.inkscape.org/) -->

<svg
   version="1.1"
   id="svg4976"
   width="484.79999"
   height="180.8"
   viewBox="0 0 484.79999 180.8"
   sodipodi:docname="logo-app-dark.svg"
   inkscape:version="1.2.1 (9c6d41e410, 2022-07-14)"
   xmlns:inkscape="http://www.inkscape.org/namespaces/inkscape"
   xmlns:sodipodi="http://sodipodi.sourceforge.net/DTD/sodipodi-0.dtd"
   xmlns="http://www.w3.org/2000/svg"
   xmlns:svg="http://www.w3.org/2000/svg">
  <defs
     id="defs4980" />
  <sodipodi:namedview
     id="namedview4978"
     pagecolor="#ffffff"
     bordercolor="#000000"
     borderopacity="0.25"
     inkscape:showpageshadow="2"
     inkscape:pageopacity="0.0"
     inkscape:pagecheckerboard="0"
     inkscape:deskcolor="#d1d1d1"
     showgrid="false"
     inkscape:zoom="1.5882839"
     inkscape:cx="207.45661"
     inkscape:cy="90.349087"
     inkscape:window-width="1920"
     inkscape:window-height="1001"
     inkscape:window-x="-9"
     inkscape:window-y="-9"
     inkscape:window-maximized="1"
     inkscape:current-layer="g240" />
  <g
     inkscape:groupmode="layer"
     inkscape:label="Image"
     id="g4982">
    <g
       id="g240">
      <path
         style="fill:#d0d0d0;fill-opacity:1;stroke-width:0.32"
         d="m 201.52,177.06807 c 0.22,-0.0888 0.58,-0.0888 0.8,0 0.22,0.0888 0.04,0.16141 -0.4,0.16141 -0.44,0 -0.62,-0.0726 -0.4,-0.16141 z m 2.08,-0.009 c 0.308,-0.0805 0.812,-0.0805 1.12,0 0.308,0.0805 0.056,0.14634 -0.56,0.14634 -0.616,0 -0.868,-0.0658 -0.56,-0.14634 z m 66.82526,-21.40608 c 0.0154,-0.37279 0.0912,-0.44861 0.19333,-0.19334 0.0924,0.231 0.0811,0.50701 -0.0252,0.61334 -0.10633,0.10633 -0.18196,-0.0827 -0.16807,-0.42 z m 0,-2.88 c 0.0154,-0.37279 0.0912,-0.44861 0.19333,-0.19334 0.0924,0.231 0.0811,0.50701 -0.0252,0.61334 -0.10633,0.10633 -0.18196,-0.0827 -0.16807,-0.42 z m 46.31473,-12.83192 c 0.231,-0.0924 0.50701,-0.0811 0.61334,0.0252 0.10633,0.10634 -0.0827,0.18197 -0.42,0.16807 -0.37279,-0.0154 -0.44861,-0.0912 -0.19334,-0.19333 z m 0.40527,-12.76807 c 0.0154,-0.37278 0.0912,-0.4486 0.19333,-0.19333 0.0924,0.231 0.0811,0.507 -0.0253,0.61333 -0.10633,0.10634 -0.18196,-0.0827 -0.16807,-0.42 z M 113.36715,121.6 c 0,-0.792 0.0624,-1.116 0.13868,-0.72 0.0763,0.396 0.0763,1.044 0,1.44 -0.0763,0.396 -0.13868,0.072 -0.13868,-0.72 z m 283.20001,0 c 0,-0.792 0.0624,-1.116 0.13866,-0.72 0.0763,0.396 0.0763,1.044 0,1.44 -0.0763,0.396 -0.13866,0.072 -0.13866,-0.72 z M 0.08069869,121.44 c 0.0035518,-0.704 0.06908295,-0.95432 0.14562478,-0.55627 0.0765418,0.39805 0.0736358,0.97405 -0.006458,1.28 C 0.13977202,122.46968 0.07714688,122.144 0.08069869,121.44 Z M 93.847153,121.28 c 0,-0.792 0.06241,-1.116 0.138679,-0.72 0.07627,0.396 0.07627,1.044 0,1.44 -0.07627,0.396 -0.138679,0.072 -0.138679,-0.72 z m 283.200007,0 c 0,-0.792 0.0624,-1.116 0.13866,-0.72 0.0763,0.396 0.0763,1.044 0,1.44 -0.0763,0.396 -0.13866,0.072 -0.13866,-0.72 z m -46.208,-5.36 c -0.39801,-0.50754 -0.38672,-0.51886 0.12083,-0.12082 0.308,0.24155 0.56,0.49355 0.56,0.56 0,0.26337 -0.26278,0.0939 -0.68083,-0.43918 z M 8.7142408,112.96 c 0,-0.616 0.065854,-0.868 0.1463433,-0.56 0.080489,0.308 0.080489,0.812 0,1.12 -0.080489,0.308 -0.1463433,0.056 -0.1463433,-0.56 z m 289.2799892,0 c 0,-0.616 0.0659,-0.868 0.14635,-0.56 0.0805,0.308 0.0805,0.812 0,1.12 -0.0805,0.308 -0.14635,0.056 -0.14635,-0.56 z m 27.84576,-1.50059 c 0.308,-0.0805 0.812,-0.0805 1.12,0 0.308,0.0805 0.056,0.14635 -0.56,0.14635 -0.616,0 -0.868,-0.0659 -0.56,-0.14635 z M 438.50969,108.32 c 0,-1.408 0.0574,-1.9442 0.12502,-1.19154 0.0676,0.75265 0.0667,1.90465 -0.003,2.56 -0.0688,0.65534 -0.12406,0.0395 -0.12291,-1.36846 z m -421.155449,0.8 c 0,-0.616 0.06585,-0.868 0.146343,-0.56 0.08049,0.308 0.08049,0.812 0,1.12 -0.08049,0.308 -0.146343,0.056 -0.146343,-0.56 z m 289.279989,0 c 0,-0.616 0.0659,-0.868 0.14635,-0.56 0.0805,0.308 0.0805,0.812 0,1.12 -0.0805,0.308 -0.14635,0.056 -0.14635,-0.56 z m 139.55075,-1.44 c 0,-1.232 0.0593,-1.69679 0.12855,-1.03286 0.0693,0.66392 0.0681,1.67192 -0.003,2.24 -0.0707,0.56807 -0.12736,0.0249 -0.12596,-1.20714 z M 55.065263,104.13333 c 0.01536,-0.37278 0.09118,-0.4486 0.193331,-0.19333 0.09244,0.231 0.08107,0.507 -0.02525,0.61333 -0.106336,0.10634 -0.181965,-0.0827 -0.16807,-0.42 z M 76.907586,101.76 c 0,-1.32 0.05648,-1.86 0.125523,-1.2 0.06904,0.66 0.06904,1.74 0,2.4 -0.06904,0.66 -0.125523,0.12 -0.125523,-1.2 z m 120.319994,0 c 0,-1.32 0.0565,-1.86 0.12553,-1.2 0.069,0.66 0.069,1.74 0,2.4 -0.069,0.66 -0.12553,0.12 -0.12553,-1.2 z m -142.162317,0.13333 c 0.01536,-0.37278 0.09118,-0.4486 0.193331,-0.19333 0.09244,0.231 0.08107,0.507 -0.02525,0.61333 -0.106336,0.10634 -0.181965,-0.0827 -0.16807,-0.42 z M 17.371524,99.36 c 0.0024,-0.88 0.06455,-1.202019 0.138102,-0.7156 0.07355,0.486419 0.07159,1.206419 -0.0044,1.6 -0.07596,0.39358 -0.136136,-0.004 -0.133734,-0.8844 z m 249.275626,0.16 c 0,-0.792 0.0624,-1.116 0.13868,-0.72 0.0763,0.396 0.0763,1.044 0,1.44 -0.0763,0.396 -0.13868,0.072 -0.13868,-0.72 z m 40.00437,-0.16 c 0.003,-0.88 0.0645,-1.202019 0.1381,-0.7156 0.0736,0.486419 0.0716,1.206419 -0.004,1.6 -0.076,0.39358 -0.13614,-0.004 -0.13374,-0.8844 z m -199.04437,-4 c 0,-0.792 0.0624,-1.116 0.13868,-0.72 0.0763,0.396 0.0763,1.044 0,1.44 -0.0763,0.396 -0.13868,0.072 -0.13868,-0.72 z m 370.39284,-0.875917 c 0.924,-0.06464 2.436,-0.06464 3.36,0 0.924,0.06464 0.168,0.11753 -1.68,0.11753 -1.848,0 -2.604,-0.05289 -1.68,-0.11753 z M 99.953585,90.72 c -9.6e-4,-1.584 0.05313,-2.272346 0.120245,-1.529654 0.0671,0.742688 0.0679,2.038688 0.002,2.88 C 100.00962,92.911654 99.954705,92.304 99.953732,90.72 Z M 383.14758,91.2 c 0,-1.32 0.0565,-1.86 0.12553,-1.2 0.069,0.66 0.069,1.74 0,2.4 -0.069,0.66 -0.12553,0.12 -0.12553,-1.2 z m 22.74201,-2.32 -0.6096,-0.72 0.72,0.609597 c 0.67661,0.57287 0.86567,0.830403 0.6096,0.830403 -0.0607,0 -0.38473,-0.324 -0.72,-0.72 z M 88.394238,88 c 0,-0.616 0.06586,-0.868 0.146346,-0.56 0.08049,0.308 0.08049,0.812 0,1.12 -0.08049,0.308 -0.146346,0.056 -0.146346,-0.56 z m 120.320002,0 c 0,-0.616 0.0659,-0.868 0.14634,-0.56 0.0805,0.308 0.0805,0.812 0,1.12 -0.0805,0.308 -0.14634,0.056 -0.14634,-0.56 z m -71.47179,-1.691773 c 0.1392,-0.138473 1.75259,-0.209667 3.58532,-0.158205 l 3.33223,0.09356 -3.58532,0.158208 c -1.97192,0.08701 -3.47142,0.04491 -3.33223,-0.09356 z M 162.88,85.319181 c 0,-0.06645 0.252,-0.318448 0.56,-0.56 0.50754,-0.398039 0.51885,-0.38672 0.12082,0.120819 -0.41804,0.53304 -0.68082,0.702554 -0.68082,0.439181 z M 225.55918,83.6 c -0.39804,-0.507539 -0.38672,-0.518858 0.12082,-0.120819 0.53304,0.418038 0.70255,0.680819 0.43918,0.680819 -0.0665,0 -0.31845,-0.252 -0.56,-0.56 z M 9.0558923,76.16 c 0,-0.968 0.059989,-1.364 0.1333088,-0.88 0.07332,0.484 0.07332,1.276 0,1.76 -0.07332,0.484 -0.1333088,0.088 -0.1333088,-0.88 z m 289.2799977,0 c 0,-0.968 0.06,-1.364 0.1333,-0.88 0.0733,0.484 0.0733,1.276 0,1.76 -0.0733,0.484 -0.1333,0.088 -0.1333,-0.88 z m -74.27351,-3.68 c 0.007,-0.528 0.0782,-0.705261 0.15937,-0.39391 0.0811,0.31135 0.0758,0.74335 -0.0119,0.96 -0.0877,0.216649 -0.15404,-0.03809 -0.14752,-0.56609 z m 29.84446,-2.10129 c -0.11601,-0.187708 -0.1423,-0.40992 -0.0584,-0.493801 0.0839,-0.08388 0.23778,0.0697 0.342,0.341289 0.21638,0.563876 0.0319,0.66306 -0.28358,0.152512 z M 224.58,66.661405 c 0.23099,-0.09244 0.507,-0.08107 0.61333,0.02525 0.10633,0.106333 -0.0827,0.181965 -0.42,0.16807 -0.37278,-0.01536 -0.44861,-0.09118 -0.19333,-0.193331 z m -70.08,-6.72 c 0.231,-0.09244 0.507,-0.08107 0.61333,0.02525 0.10633,0.106333 -0.0827,0.181965 -0.42,0.16807 -0.37278,-0.01536 -0.44861,-0.09118 -0.19333,-0.193331 z M 229.39918,59.6 c -0.39804,-0.507539 -0.38672,-0.518858 0.12082,-0.120819 0.53304,0.418038 0.70255,0.680819 0.43918,0.680819 -0.0665,0 -0.31845,-0.252 -0.56,-0.56 z m 128.62081,-1.258595 c 0.23101,-0.09244 0.50701,-0.08107 0.61335,0.02525 0.10633,0.106333 -0.0827,0.181965 -0.42,0.16807 -0.3728,-0.01536 -0.44861,-0.09118 -0.19335,-0.193331 z M 231.33577,55.44 230.56,54.56 l 0.88,0.775779 c 0.484,0.426682 0.88,0.822682 0.88,0.88 0,0.25097 -0.25914,0.04671 -0.98423,-0.775779 z m -4.81659,-25.92 c -0.39804,-0.507538 -0.38672,-0.518856 0.12082,-0.120818 0.308,0.24155 0.56,0.49355 0.56,0.56 0,0.263371 -0.26279,0.09386 -0.68082,-0.439182 z"
         id="path256" />
      <path
         style="fill:#b9b9b9;fill-opacity:1;stroke-width:0.32"
         d="m 325.52438,164.57037 c 0.48643,-0.0735 1.20643,-0.0716 1.6,0.004 0.3936,0.076 -0.004,0.13613 -0.88439,0.13373 -0.88,-0.003 -1.20201,-0.0645 -0.71561,-0.1381 z M 270.47423,154.24 c 0,-0.616 0.0659,-0.868 0.14635,-0.56 0.0805,0.308 0.0805,0.812 0,1.12 -0.0805,0.308 -0.14635,0.056 -0.14635,-0.56 z M 210.32,143.77941 c 0.308,-0.0805 0.812,-0.0805 1.12,0 0.308,0.0805 0.056,0.14635 -0.56,0.14635 -0.616,0 -0.868,-0.0659 -0.56,-0.14635 z M 355.9207,138.08 c 0.004,-0.704 0.0691,-0.95432 0.14563,-0.55627 0.0765,0.39805 0.0736,0.97405 -0.006,1.28 -0.0801,0.30595 -0.14272,-0.0197 -0.13917,-0.72373 z m -38.75018,-12 c 0,-0.44 0.0726,-0.62 0.1614,-0.4 0.0888,0.22 0.0888,0.58 0,0.8 -0.0888,0.22 -0.1614,0.04 -0.1614,-0.4 z m 17.89472,-0.18667 c 0.0154,-0.37278 0.0912,-0.4486 0.19335,-0.19333 0.0924,0.231 0.0811,0.507 -0.0253,0.61333 -0.10634,0.10634 -0.18199,-0.0827 -0.1681,-0.42 z m 0,-1.28 c 0.0154,-0.37278 0.0912,-0.4486 0.19335,-0.19333 0.0924,0.231 0.0811,0.507 -0.0253,0.61333 -0.10634,0.10634 -0.18199,-0.0827 -0.1681,-0.42 z M 0.57999999,122.6614 C 0.81099998,122.569 1.087,122.5803 1.1933333,122.6866 c 0.1063333,0.10634 -0.082667,0.18197 -0.41999997,0.16807 -0.37278175,-0.0154 -0.4486078,-0.0912 -0.19333334,-0.19333 z M 236.16,120.83918 c 0,-0.0665 0.252,-0.31845 0.56,-0.56 0.50753,-0.39804 0.51885,-0.38672 0.12081,0.12082 -0.41803,0.53304 -0.68081,0.70255 -0.68081,0.43918 z M 185.66238,115.04 c 0.007,-0.528 0.0782,-0.70526 0.15937,-0.39391 0.0811,0.31135 0.0758,0.74335 -0.0119,0.96 -0.0877,0.21665 -0.15404,-0.0381 -0.14752,-0.56609 z m 252.8426,-2.24 c 0,-1.232 0.0593,-1.69679 0.12855,-1.03286 0.0693,0.66392 0.0681,1.67192 -0.003,2.24 -0.0707,0.56807 -0.12736,0.0249 -0.12596,-1.20714 z M 17.330526,107.52 c 0,-0.44 0.07263,-0.62 0.161404,-0.4 0.08877,0.22 0.08877,0.58 0,0.8 -0.08877,0.22 -0.161404,0.04 -0.161404,-0.4 z m 59.574477,-1.44 c 0.0013,-1.232 0.05926,-1.69679 0.128531,-1.03286 0.06927,0.66392 0.06811,1.67192 -0.0026,2.24 -0.07069,0.56807 -0.127369,0.0249 -0.125948,-1.20714 z m 120.319997,0 c 0.001,-1.232 0.0593,-1.69679 0.12853,-1.03286 0.0693,0.66392 0.0681,1.67192 -0.003,2.24 -0.0707,0.56807 -0.12737,0.0249 -0.12595,-1.20714 z m 109.38552,1.44 c 0,-0.44 0.0726,-0.62 0.1614,-0.4 0.0888,0.22 0.0888,0.58 0,0.8 -0.0888,0.22 -0.1614,0.04 -0.1614,-0.4 z m 139.5719,-3.84 c 0,-1.144 0.0581,-1.612 0.12906,-1.04 0.071,0.572 0.071,1.508 0,2.08 -0.071,0.572 -0.12906,0.104 -0.12906,-1.04 z m 13.09181,0.64 c 0,-0.616 0.0659,-0.868 0.14634,-0.56 0.0805,0.308 0.0805,0.812 0,1.12 -0.0805,0.308 -0.14634,0.056 -0.14634,-0.56 z M 30.175892,100.16 c 0,-0.968 0.05999,-1.364 0.133309,-0.88 0.07332,0.484 0.07332,1.276 0,1.76 -0.07332,0.484 -0.133309,0.088 -0.133309,-0.88 z m 289.279988,0 c 0,-0.968 0.06,-1.364 0.13331,-0.88 0.0733,0.484 0.0733,1.276 0,1.76 -0.0733,0.484 -0.13331,0.088 -0.13331,-0.88 z m -219.502295,-4 c -9.6e-4,-1.584 0.05312,-2.272346 0.120245,-1.529654 0.0671,0.742688 0.0679,2.038688 0.002,2.88 C 100.00962,98.351654 99.954705,97.744 99.953732,96.16 Z m 283.200005,0 c 0,-1.584 0.0531,-2.272346 0.12023,-1.529654 0.0671,0.742688 0.0679,2.038688 0.003,2.88 C 383.21087,98.351654 383.15596,97.744 383.155,96.16 Z m -116.53121,1.28 c 0.007,-0.528 0.0782,-0.705261 0.15937,-0.39391 0.0811,0.31135 0.0758,0.74335 -0.0119,0.96 -0.0877,0.216649 -0.15404,-0.03809 -0.14752,-0.56609 z M 17.367156,96.64 c 0,-0.792 0.0624,-1.116 0.138678,-0.72 0.07627,0.396 0.07627,1.044 0,1.44 -0.07627,0.396 -0.138678,0.072 -0.138678,-0.72 z m 289.279994,0 c 0,-0.792 0.0624,-1.116 0.13868,-0.72 0.0763,0.396 0.0763,1.044 0,1.44 -0.0763,0.396 -0.13868,0.072 -0.13868,-0.72 z M 107.59424,93.12 c 0,-0.616 0.0658,-0.868 0.14634,-0.56 0.0805,0.308 0.0805,0.812 0,1.12 -0.0805,0.308 -0.14634,0.056 -0.14634,-0.56 z m 349.04575,-3.320819 c 0,-0.06645 0.252,-0.318448 0.56,-0.56 0.50755,-0.398039 0.51885,-0.38672 0.12083,0.120819 -0.41805,0.53304 -0.68083,0.702554 -0.68083,0.439181 z m -76.48,-2.580295 c 0,-0.429612 0.11795,-0.854009 0.26211,-0.9431 0.14413,-0.08909 0.19981,0.262409 0.12368,0.781113 -0.16787,1.143645 -0.38579,1.235152 -0.38579,0.161987 z M 146.35358,79.2 c -9.6e-4,-1.584 0.0531,-2.272346 0.12025,-1.529654 0.0671,0.742688 0.0679,2.038688 0.002,2.88 C 146.40947,81.391654 146.35456,80.784 146.35358,79.2 Z M 9.0558923,79.36 c 0,-0.968 0.059989,-1.364 0.1333088,-0.88 0.07332,0.484 0.07332,1.276 0,1.76 -0.07332,0.484 -0.1333088,0.088 -0.1333088,-0.88 z m 289.2799977,0 c 0,-0.968 0.06,-1.364 0.1333,-0.88 0.0733,0.484 0.0733,1.276 0,1.76 -0.0733,0.484 -0.1333,0.088 -0.1333,-0.88 z M 234.32,76.899414 c 0.308,-0.08049 0.812,-0.08049 1.12,0 0.308,0.08049 0.056,0.146346 -0.56,0.146346 -0.616,0 -0.868,-0.06586 -0.56,-0.146346 z M 37.71918,69.52 c -0.398038,-0.507539 -0.38672,-0.518858 0.120819,-0.120819 0.308,0.241552 0.56,0.493552 0.56,0.56 0,0.263373 -0.262781,0.09386 -0.680819,-0.439181 z m 289.27998,0 c -0.39801,-0.507539 -0.38672,-0.518858 0.12083,-0.120819 0.53303,0.418038 0.70256,0.680819 0.43917,0.680819 -0.0664,0 -0.31843,-0.252 -0.56,-0.56 z M 223.62,66.661405 c 0.23099,-0.09244 0.507,-0.08107 0.61333,0.02525 0.10633,0.106333 -0.0827,0.181965 -0.42,0.16807 -0.37278,-0.01536 -0.44861,-0.09118 -0.19333,-0.193331 z m 94.3859,-27.355309 c 0.18595,-0.185952 0.52698,-0.275133 0.75784,-0.198179 0.23966,0.07989 0.0946,0.224941 -0.3381,0.338096 -0.53227,0.13919 -0.6572,0.09754 -0.41974,-0.139917 z M 162.8,31.14807 c 0.22,-0.08877 0.58,-0.08877 0.8,0 0.22,0.08877 0.04,0.161404 -0.4,0.161404 -0.44,0 -0.62,-0.07263 -0.4,-0.161404 z m 3.52,0 c 0.22,-0.08877 0.58,-0.08877 0.8,0 0.22,0.08877 0.04,0.161404 -0.4,0.161404 -0.44,0 -0.62,-0.07263 -0.4,-0.161404 z M 225.55918,28.56 c -0.39804,-0.507538 -0.38672,-0.518856 0.12082,-0.120818 0.308,0.24155 0.56,0.49355 0.56,0.56 0,0.263371 -0.26279,0.09386 -0.68082,-0.439182 z"
         id="path254" />
      <path
         style="fill:#a3a3a3;fill-opacity:1;stroke-width:0.32"
         d="m 246.07999,159.2 c 0.59705,-0.616 1.15755,-1.12 1.24555,-1.12 0.088,0 -0.3285,0.504 -0.92555,1.12 -0.59704,0.616 -1.15754,1.12 -1.24554,1.12 -0.088,0 0.3285,-0.504 0.92554,-1.12 z m -89.25473,-1.94667 c 0.0154,-0.37278 0.0912,-0.4486 0.19333,-0.19333 0.0924,0.231 0.0811,0.507 -0.0252,0.61333 -0.10633,0.10634 -0.18196,-0.0827 -0.16807,-0.42 z M 271.10238,143.84 c 0.007,-0.528 0.0782,-0.70526 0.15937,-0.39391 0.0811,0.31135 0.0758,0.74335 -0.0119,0.96 -0.0877,0.21665 -0.15404,-0.0381 -0.14752,-0.56609 z m 167.43156,-16.16 c 0,-3.432 0.0471,-4.836 0.10461,-3.12 0.0575,1.716 0.0575,4.524 0,6.24 -0.0575,1.716 -0.10461,0.312 -0.10461,-3.12 z M 2.1657309,122.64809 c 0.575152,-0.0712 1.4391519,-0.0697 1.9199999,0.003 0.480848,0.073 0.010269,0.13129 -1.0457309,0.12949 -1.0559999,-0.002 -1.449421,-0.0615 -0.874269,-0.13275 z M 217.23918,120.4 c -0.39804,-0.50754 -0.38672,-0.51886 0.12082,-0.12082 0.53304,0.41804 0.70255,0.68082 0.43918,0.68082 -0.0665,0 -0.31845,-0.252 -0.56,-0.56 z m 221.21134,-4.88 c 0,-0.44 0.0726,-0.62 0.16141,-0.4 0.0888,0.22 0.0888,0.58 0,0.8 -0.0888,0.22 -0.16141,0.04 -0.16141,-0.4 z m -252.82526,-1.78667 c 0.0154,-0.37278 0.0912,-0.4486 0.19333,-0.19333 0.0924,0.231 0.0811,0.507 -0.0252,0.61333 -0.10633,0.10634 -0.18196,-0.0827 -0.16807,-0.42 z M 76.907586,110.4 c 0,-1.32 0.05648,-1.86 0.125523,-1.2 0.06904,0.66 0.06904,1.74 0,2.4 -0.06904,0.66 -0.125523,0.12 -0.125523,-1.2 z m 120.319994,0 c 0,-1.32 0.0565,-1.86 0.12553,-1.2 0.069,0.66 0.069,1.74 0,2.4 -0.069,0.66 -0.12553,0.12 -0.12553,-1.2 z m 219.80665,-5.76 c 0,-0.616 0.0659,-0.868 0.14634,-0.56 0.0805,0.308 0.0805,0.812 0,1.12 -0.0805,0.308 -0.14634,0.056 -0.14634,-0.56 z M 99.955358,101.76 c 0,-1.672 0.05393,-2.356 0.119852,-1.52 0.0659,0.836 0.0659,2.204 0,3.04 -0.0659,0.836 -0.119852,0.152 -0.119852,-1.52 z m 283.199992,0 c 0,-1.672 0.0539,-2.356 0.11984,-1.52 0.0659,0.836 0.0659,2.204 0,3.04 -0.0659,0.836 -0.11984,0.152 -0.11984,-1.52 z m 86.06054,-0.32 c 0,-0.968 0.06,-1.364 0.13332,-0.88 0.0733,0.484 0.0733,1.276 0,1.76 -0.0734,0.484 -0.13332,0.088 -0.13332,-0.88 z m -23.02832,-1.92 c 0,-1.32 0.0565,-1.86 0.12554,-1.2 0.069,0.66 0.069,1.74 0,2.4 -0.0691,0.66 -0.12554,0.12 -0.12554,-1.2 z M 141.44,98.759181 c 0,-0.06645 0.252,-0.318448 0.56,-0.56 0.50754,-0.398039 0.51885,-0.38672 0.12082,0.120819 -0.41804,0.53304 -0.68082,0.702554 -0.68082,0.439181 z M 30.182423,96.64 c 0,-1.144 0.05808,-1.612 0.129063,-1.04 0.07098,0.572 0.07098,1.508 0,2.08 -0.07099,0.572 -0.129063,0.104 -0.129063,-1.04 z m 289.279997,0 c 0,-1.144 0.0581,-1.612 0.12906,-1.04 0.071,0.572 0.071,1.508 0,2.08 -0.071,0.572 -0.12906,0.104 -0.12906,-1.04 z M 17.305263,91.653334 c 0.01535,-0.372784 0.09118,-0.448608 0.193333,-0.193334 0.09244,0.230998 0.08107,0.507002 -0.02526,0.613334 -0.106333,0.106333 -0.181965,-0.08267 -0.16807,-0.42 z m 289.279997,0 c 0.0154,-0.372784 0.0912,-0.448608 0.19333,-0.193334 0.0924,0.230998 0.0811,0.507002 -0.0253,0.613334 -0.10633,0.106333 -0.18196,-0.08267 -0.16807,-0.42 z m 90.47473,-6.751929 c 0.23101,-0.09244 0.50701,-0.08107 0.61335,0.02525 0.10633,0.106333 -0.0827,0.181965 -0.42,0.16807 -0.3728,-0.01536 -0.44861,-0.09118 -0.19335,-0.193331 z M 9.0591579,82.72 c 0.00179,-1.056 0.061536,-1.449421 0.1327558,-0.874269 0.07122,0.575152 0.06975,1.439152 -0.00326,1.92 -0.07302,0.480848 -0.1312904,0.01027 -0.1294942,-1.045731 z m 289.2799921,0 c 0.002,-1.056 0.0615,-1.449421 0.13276,-0.874269 0.0712,0.575152 0.0697,1.439152 -0.003,1.92 -0.073,0.480848 -0.13128,0.01027 -0.12949,-1.045731 z M 233.22,76.901405 c 0.23099,-0.09244 0.507,-0.08107 0.61333,0.02525 0.10633,0.106333 -0.0827,0.181965 -0.42,0.16807 -0.37278,-0.01536 -0.44861,-0.09118 -0.19333,-0.193331 z m -23.68,-7.36 c 0.23099,-0.09244 0.507,-0.08107 0.61333,0.02525 0.10633,0.106333 -0.0827,0.181965 -0.42,0.16807 -0.37278,-0.01536 -0.44861,-0.09118 -0.19333,-0.193331 z M 163.57052,68.48 c 0,-0.44 0.0726,-0.62 0.16141,-0.4 0.0888,0.22 0.0888,0.58 0,0.8 -0.0888,0.22 -0.16141,0.04 -0.16141,-0.4 z M 312.87999,54.18807 c 0.22,-0.08877 0.58,-0.08877 0.8,0 0.22,0.08877 0.04,0.161405 -0.4,0.161405 -0.44,0 -0.62,-0.07263 -0.4,-0.161405 z m 1.62,-0.0067 c 0.231,-0.09244 0.50701,-0.08107 0.61334,0.02525 0.10633,0.106333 -0.0827,0.181965 -0.42,0.168071 -0.37279,-0.01536 -0.44861,-0.09118 -0.19334,-0.193331 z M 206.84959,41.2 206.24,40.48 l 0.72,0.609597 c 0.67662,0.57287 0.86567,0.830403 0.60959,0.830403 -0.0607,0 -0.38472,-0.324 -0.72,-0.72 z M 164.40373,31.133676 c 0.39805,-0.07654 0.97405,-0.07364 1.28,0.0065 0.30595,0.08009 -0.0197,0.142719 -0.72373,0.139167 -0.704,-0.0036 -0.95432,-0.06908 -0.55627,-0.145625 z M 214.35918,28.88 c -0.39804,-0.507538 -0.38672,-0.518856 0.12082,-0.120818 0.308,0.24155 0.56,0.49355 0.56,0.56 0,0.263371 -0.26279,0.09386 -0.68082,-0.439182 z m -1.28,-1.28 c -0.39804,-0.507538 -0.38672,-0.518856 0.12082,-0.120818 0.53304,0.418038 0.70255,0.680818 0.43918,0.680818 -0.0665,0 -0.31845,-0.252 -0.56,-0.56 z m -1.48494,-10 c 0,-0.616 0.0658,-0.868 0.14634,-0.56 0.0805,0.308 0.0805,0.812 0,1.12 -0.0805,0.308 -0.14634,0.056 -0.14634,-0.56 z M 201.65052,5.44 c 0,-0.44 0.0726,-0.62 0.16141,-0.4 0.0888,0.22 0.0888,0.58 0,0.8 -0.0888,0.22 -0.16141,0.04 -0.16141,-0.4 z"
         id="path252" />
      <path
         style="fill:#8c8c8c;fill-opacity:1;stroke-width:0.32"
         d="m 271.06526,145.09333 c 0.0154,-0.37278 0.0912,-0.4486 0.19333,-0.19333 0.0924,0.231 0.0811,0.507 -0.0253,0.61333 -0.10633,0.10634 -0.18196,-0.0827 -0.16807,-0.42 z m 23.65058,-22.24799 c -0.57534,-0.16016 -0.33037,-0.23038 0.88415,-0.25344 0.924,-0.0175 1.68,0.0238 1.68,0.0918 0,0.25957 -1.80391,0.3733 -2.56415,0.16166 z M 5.5199999,122.6508 c 0.484,-0.0733 1.276,-0.0733 1.7599999,0 0.484,0.0733 0.088,0.13331 -0.8799999,0.13331 -0.968,0 -1.364,-0.06 -0.88,-0.13331 z M 185.62526,116.93333 c 0.0154,-0.37278 0.0912,-0.4486 0.19333,-0.19333 0.0924,0.231 0.0811,0.507 -0.0252,0.61333 -0.10633,0.10634 -0.18196,-0.0827 -0.16807,-0.42 z M 84.596872,113.44 c 9.6e-4,-1.76 0.05457,-2.43917 0.119414,-1.50927 0.06485,0.9299 0.06417,2.3699 -0.0016,3.2 -0.06568,0.8301 -0.118733,0.0693 -0.117901,-1.69073 z m 120.319998,0 c 9.6e-4,-1.76 0.0546,-2.43917 0.11941,-1.50927 0.0649,0.9299 0.0642,2.3699 -0.002,3.2 -0.0656,0.8301 -0.11864,0.0693 -0.11781,-1.69073 z M 76.874238,113.6 c 0,-0.616 0.06586,-0.868 0.146346,-0.56 0.08049,0.308 0.08049,0.812 0,1.12 -0.08049,0.308 -0.146346,0.056 -0.146346,-0.56 z m 120.320002,0 c 0,-0.616 0.0658,-0.868 0.14634,-0.56 0.0805,0.308 0.0805,0.812 0,1.12 -0.0805,0.308 -0.14634,0.056 -0.14634,-0.56 z m -97.240655,-6.24 c -9.6e-4,-1.584 0.05313,-2.27235 0.120245,-1.52965 0.0671,0.74268 0.0679,2.03868 0.002,2.88 -0.0661,0.8413 -0.121045,0.23365 -0.122018,-1.35035 z m 283.200005,0 c 0,-1.584 0.0531,-2.27235 0.12023,-1.52965 0.0671,0.74268 0.0679,2.03868 0.003,2.88 -0.0661,0.8413 -0.12106,0.23365 -0.12202,-1.35035 z m 63.02883,-12 c 0,-1.144 0.0581,-1.612 0.12906,-1.04 0.071,0.572 0.071,1.508 0,2.08 -0.071,0.572 -0.12906,0.104 -0.12906,-1.04 z M 136.56,95.14807 c 0.22,-0.08877 0.58,-0.08877 0.8,0 0.22,0.08877 0.04,0.161405 -0.4,0.161405 -0.44,0 -0.62,-0.07263 -0.4,-0.161405 z M 30.179157,92.96 c 0.0018,-1.056 0.06154,-1.449421 0.132756,-0.874269 0.07122,0.575152 0.06975,1.439152 -0.0033,1.92 -0.07301,0.480848 -0.131286,0.01027 -0.12949,-1.045731 z m 289.279993,0 c 0.002,-1.056 0.0615,-1.449421 0.13276,-0.874269 0.0712,0.575152 0.0697,1.439152 -0.003,1.92 -0.073,0.480848 -0.13128,0.01027 -0.12949,-1.045731 z M 17.342383,90.4 c 0.0065,-0.528 0.07824,-0.705261 0.159374,-0.39391 0.08113,0.31135 0.0758,0.74335 -0.01186,0.96 C 17.402244,91.182739 17.335862,90.928 17.342383,90.4 Z m 289.279997,0 c 0.007,-0.528 0.0782,-0.705261 0.15937,-0.39391 0.0811,0.31135 0.0758,0.74335 -0.0119,0.96 -0.0877,0.216649 -0.15404,-0.03809 -0.14752,-0.56609 z M 9.0558923,86.08 c 0,-0.968 0.059989,-1.364 0.1333088,-0.88 0.07332,0.484 0.07332,1.276 0,1.76 -0.07332,0.484 -0.1333088,0.088 -0.1333088,-0.88 z m 289.2799977,0 c 0,-0.968 0.06,-1.364 0.1333,-0.88 0.0733,0.484 0.0733,1.276 0,1.76 -0.0733,0.484 -0.1333,0.088 -0.1333,-0.88 z M 201.6,79.879181 c 0,-0.06645 0.252,-0.318448 0.56,-0.56 0.50754,-0.398039 0.51885,-0.38672 0.12082,0.120819 -0.41804,0.53304 -0.68082,0.702554 -0.68082,0.439181 z m -4.54,-2.337776 c 0.23099,-0.09244 0.507,-0.08107 0.61333,0.02525 0.10633,0.106333 -0.0827,0.181965 -0.42,0.16807 -0.37278,-0.01536 -0.44861,-0.09118 -0.19333,-0.193331 z m 11.18,-7.993335 c 0.22,-0.08877 0.58,-0.08877 0.8,0 0.22,0.08877 0.04,0.161405 -0.4,0.161405 -0.44,0 -0.62,-0.07263 -0.4,-0.161405 z M 311.99999,43.719181 c 0,-0.06645 0.252,-0.318448 0.56,-0.56 0.50754,-0.398039 0.51886,-0.38672 0.12082,0.120819 -0.41804,0.53304 -0.68082,0.702554 -0.68082,0.439181 z M 226.86277,37.2 225.76,36 l 1.2,1.102774 c 1.11693,1.026436 1.34713,1.297226 1.10277,1.297226 -0.0535,0 -0.59348,-0.54 -1.2,-1.2 z M 211.79918,26.32 c -0.39804,-0.507538 -0.38672,-0.518856 0.12082,-0.120818 0.308,0.24155 0.56,0.49355 0.56,0.56 0,0.263371 -0.26279,0.09386 -0.68082,-0.439182 z"
         id="path250" />
      <path
         style="fill:#767676;fill-opacity:1;stroke-width:0.32"
         d="m 314.49999,180.5814 c 0.231,-0.0924 0.50701,-0.0811 0.61334,0.0252 0.10633,0.10634 -0.0827,0.18197 -0.42,0.16807 -0.37279,-0.0154 -0.44861,-0.0912 -0.19334,-0.19333 z m 22.70375,-10.56772 c 0.39805,-0.0765 0.97405,-0.0736 1.28,0.006 0.30592,0.0801 -0.0198,0.14272 -0.72375,0.13917 -0.704,-0.004 -0.95433,-0.0691 -0.55625,-0.14563 z M 281.98238,164.32 c 0.007,-0.528 0.0782,-0.70526 0.15937,-0.39391 0.0811,0.31135 0.0758,0.74335 -0.0119,0.96 -0.0877,0.21665 -0.15404,-0.0381 -0.14752,-0.56609 z m -124.9032,-1.36 c -0.39804,-0.50754 -0.38672,-0.51886 0.12082,-0.12082 0.308,0.24155 0.56,0.49355 0.56,0.56 0,0.26337 -0.26278,0.0939 -0.68082,-0.43918 z m 113.98608,-16.90667 c 0.0154,-0.37278 0.0912,-0.4486 0.19333,-0.19333 0.0924,0.231 0.0811,0.507 -0.0253,0.61333 -0.10633,0.10634 -0.18196,-0.0827 -0.16807,-0.42 z M 415.95916,145.36 c -0.39802,-0.50754 -0.38672,-0.51886 0.12083,-0.12082 0.53303,0.41804 0.70256,0.68082 0.43917,0.68082 -0.0664,0 -0.31843,-0.252 -0.56,-0.56 z m 29.82608,-11.78667 c 0.0154,-0.37278 0.0912,-0.4486 0.19334,-0.19333 0.0924,0.231 0.0811,0.507 -0.0253,0.61333 -0.10633,0.10634 -0.18198,-0.0827 -0.16809,-0.42 z m -303.35998,-5.44 c 0.0154,-0.37278 0.0912,-0.4486 0.19333,-0.19333 0.0924,0.231 0.0811,0.507 -0.0252,0.61333 -0.10633,0.10634 -0.18196,-0.0827 -0.16807,-0.42 z M 8.8857307,122.64809 c 0.575152,-0.0712 1.4391523,-0.0697 1.9200003,0.003 0.480848,0.073 0.01027,0.13129 -1.0457312,0.12949 -1.056,-0.002 -1.4494211,-0.0615 -0.8742691,-0.13275 z m 289.2799993,0 c 0.57515,-0.0712 1.43915,-0.0697 1.92,0.003 0.48084,0.073 0.0103,0.13129 -1.04574,0.12949 -1.056,-0.002 -1.44942,-0.0615 -0.87426,-0.13275 z M 107.27424,112.96 c 0,-0.616 0.0658,-0.868 0.14634,-0.56 0.0805,0.308 0.0805,0.812 0,1.12 -0.0805,0.308 -0.14634,0.056 -0.14634,-0.56 z m -7.335084,-1.12 c 0.0019,-1.056 0.06153,-1.44942 0.132754,-0.87427 0.0712,0.57515 0.0697,1.43915 -0.003,1.92 -0.07302,0.48085 -0.131289,0.0103 -0.129494,-1.04573 z m 283.200004,0 c 0.003,-1.056 0.0615,-1.44942 0.13274,-0.87427 0.0712,0.57515 0.0698,1.43915 -0.003,1.92 -0.073,0.48085 -0.13127,0.0103 -0.12948,-1.04573 z m 7.33507,0.48 c 0,-0.616 0.0659,-0.868 0.14634,-0.56 0.0805,0.308 0.0805,0.812 0,1.12 -0.0805,0.308 -0.14634,0.056 -0.14634,-0.56 z m -305.878872,-4.8 c 0,-1.672 0.05393,-2.356 0.119853,-1.52 0.06592,0.836 0.06592,2.204 0,3.04 -0.06592,0.836 -0.119853,0.152 -0.119853,-1.52 z m 120.320002,0 c 0,-1.672 0.0539,-2.356 0.11985,-1.52 0.0659,0.836 0.0659,2.204 0,3.04 -0.0659,0.836 -0.11985,0.152 -0.11985,-1.52 z M 274.025,104.8 c 0.001,-1.232 0.0593,-1.69679 0.12853,-1.03286 0.0693,0.66392 0.0681,1.67192 -0.003,2.24 -0.0707,0.56807 -0.12737,0.0249 -0.12595,-1.20714 z M 146.23489,97.855024 c -0.0852,-1.003738 -0.0382,-1.707827 0.10446,-1.564643 0.14265,0.143184 0.21235,0.964422 0.15489,1.824976 L 146.38978,99.68 Z M 342.77052,97.92 c 0,-0.44 0.0726,-0.62 0.16141,-0.4 0.0888,0.22 0.0888,0.58 0,0.8 -0.0888,0.22 -0.16141,0.04 -0.16141,-0.4 z m -89.39053,-2.458595 c 0.231,-0.09244 0.50701,-0.08107 0.61334,0.02525 0.10633,0.106333 -0.0827,0.181965 -0.42,0.16807 -0.37278,-0.01536 -0.44861,-0.09118 -0.19334,-0.193331 z M 446.16716,92.16 c 0,-0.792 0.0624,-1.116 0.13865,-0.72 0.0763,0.396 0.0763,1.044 0,1.44 -0.0763,0.396 -0.13865,0.072 -0.13865,-0.72 z M 9.0591579,89.44 c 0.00179,-1.056 0.061536,-1.449421 0.1327558,-0.874269 0.07122,0.575152 0.06975,1.439152 -0.00326,1.92 C 9.1156341,90.966579 9.0573633,90.496003 9.0591595,89.44 Z M 30.182423,89.28 c 0,-1.144 0.05808,-1.612 0.129063,-1.04 0.07098,0.572 0.07098,1.508 0,2.08 -0.07099,0.572 -0.129063,0.104 -0.129063,-1.04 z m 268.156727,0.16 c 0.002,-1.056 0.0615,-1.449421 0.13276,-0.874269 0.0712,0.575152 0.0697,1.439152 -0.003,1.92 -0.073,0.480848 -0.13128,0.01027 -0.12949,-1.045731 z m 21.12327,-0.16 c 0,-1.144 0.0581,-1.612 0.12906,-1.04 0.071,0.572 0.071,1.508 0,2.08 -0.071,0.572 -0.12906,0.104 -0.12906,-1.04 z m 130.19994,0.16 c 0.006,-0.528 0.0782,-0.705261 0.15939,-0.39391 0.0811,0.31135 0.0758,0.74335 -0.0118,0.96 -0.0876,0.216649 -0.15402,-0.03809 -0.14752,-0.56609 z M 17.342383,88.8 c 0.0065,-0.528 0.07824,-0.705261 0.159374,-0.39391 0.08113,0.31135 0.0758,0.74335 -0.01186,0.96 C 17.402244,89.582739 17.335862,89.328 17.342383,88.8 Z m 289.279997,0 c 0.007,-0.528 0.0782,-0.705261 0.15937,-0.39391 0.0811,0.31135 0.0758,0.74335 -0.0119,0.96 -0.0877,0.216649 -0.15404,-0.03809 -0.14752,-0.56609 z M 184.32,83.68 c 0.41336,-0.44 0.82356,-0.8 0.91156,-0.8 0.088,0 -0.1782,0.36 -0.59156,0.8 -0.41336,0.44 -0.82357,0.8 -0.91157,0.8 -0.088,0 0.17821,-0.36 0.59157,-0.8 z m -19.09334,-5.105923 c 0,-0.256259 0.12235,-0.390307 0.27189,-0.297888 0.14954,0.09242 0.18904,0.302083 0.0878,0.465923 -0.25876,0.418682 -0.35967,0.371539 -0.35967,-0.168035 z M 260.86238,67.68 c 0.007,-0.528 0.0782,-0.705261 0.15937,-0.39391 0.0811,0.31135 0.0758,0.74335 -0.0119,0.96 -0.0877,0.216649 -0.15404,-0.03809 -0.14752,-0.56609 z m -96.4232,-5.2 c -0.39804,-0.507539 -0.38672,-0.518858 0.12082,-0.120819 0.53304,0.418038 0.70255,0.680819 0.43918,0.680819 -0.0665,0 -0.31845,-0.252 -0.56,-0.56 z m 64,-23.68 c -0.39804,-0.507539 -0.38672,-0.518858 0.12082,-0.120819 0.53304,0.418038 0.70255,0.680819 0.43918,0.680819 -0.0665,0 -0.31845,-0.252 -0.56,-0.56 z m -3.2,-3.2 c -0.39804,-0.507539 -0.38672,-0.518858 0.12082,-0.120819 0.308,0.241552 0.56,0.493552 0.56,0.56 0,0.263373 -0.26279,0.09386 -0.68082,-0.439181 z M 197.46526,23.493333 c 0.0154,-0.372781 0.0912,-0.448608 0.19333,-0.193333 0.0924,0.231 0.0811,0.507 -0.0252,0.613333 -0.10633,0.106334 -0.18196,-0.08267 -0.16807,-0.42 z M 175.75424,22.08 c 0,-0.616 0.0658,-0.868 0.14634,-0.56 0.0805,0.308 0.0805,0.812 0,1.12 -0.0805,0.308 -0.14634,0.056 -0.14634,-0.56 z m 21.71102,-1.786667 c 0.0154,-0.372781 0.0912,-0.448608 0.19333,-0.193333 0.0924,0.231 0.0811,0.507 -0.0252,0.613333 -0.10633,0.106334 -0.18196,-0.08267 -0.16807,-0.42 z"
         id="path248" />
      <path
         style="fill:#df0000;fill-opacity:1;stroke-width:0.32"
         d="m 311.99999,180.31922 c -3.66298,-0.44004 -7.70294,-1.68447 -9.92,-3.05565 -0.264,-0.16328 -1.02,-0.5893 -1.68,-0.94672 -0.66,-0.35742 -1.2,-0.79093 -1.2,-0.96335 0,-0.17243 -0.20986,-0.3135 -0.46637,-0.3135 -0.25651,0 -1.66051,-1.20429 -3.12,-2.6762 -2.93937,-2.96438 -5.64666,-7.1736 -7.02597,-10.9238 -0.86962,-2.36437 -1.87866,-6.54773 -1.87176,-7.76 l 0.004,-0.72 -0.64,0.64 c -0.352,0.352 -0.64,0.77684 -0.64,0.9441 0,0.16725 -0.18641,0.41925 -0.41425,0.56 -0.59937,0.37025 -2.00051,3.48814 -2.48778,5.5359 -0.54671,2.29762 -0.47966,5.75666 0.15819,8.16 0.5564,2.09643 2.0494,5.28 2.47617,5.28 0.14722,0 0.26767,0.216 0.26767,0.48 0,0.264 -0.12569,0.48 -0.27932,0.48 -0.36947,0 -3.35576,-1.31542 -3.56068,-1.56844 -0.088,-0.10865 -0.78538,-0.6031 -1.54974,-1.09878 -2.66354,-1.72727 -5.9284,-5.48951 -7.12701,-8.21278 -0.19366,-0.44 -0.46856,-1.03075 -0.6109,-1.31278 -0.14233,-0.28203 -0.52075,-1.50603 -0.84091,-2.72 -0.62887,-2.38444 -0.71361,-5.82908 -0.36396,-14.79405 0.16967,-4.3504 0.26564,-4.98588 0.84632,-5.60398 0.36022,-0.38344 0.98598,-1.41537 1.39057,-2.29318 0.72723,-1.57779 0.73673,-1.75768 0.83109,-15.75601 0.0525,-7.788 0.18167,-14.16 0.28704,-14.16 0.17241,0 2.90651,2.12019 3.2975,2.55708 0.088,0.0983 1.744,1.46873 3.68,3.04533 1.936,1.5766 4.528,3.709 5.76,4.73867 l 2.24,1.87213 -0.10673,1.53708 -0.10673,1.53708 3.46673,0.19296 c 1.9067,0.10613 4.15645,0.28143 4.99943,0.38955 1.65154,0.21183 4.08507,-0.10336 3.51557,-0.45533 -0.1911,-0.11811 2.87886,-0.16307 6.82214,-0.0999 l 7.16959,0.11481 V 121.47472 120 h -1.54192 c -1.95889,0 -4.59079,-0.77426 -5.30153,-1.55961 -0.51878,-0.57325 -0.51298,-0.71118 0.10752,-2.5531 0.72016,-2.13776 0.82321,-3.78825 0.34141,-5.46821 -0.31331,-1.09242 -0.17149,-1.72551 0.25192,-1.12466 0.12243,0.17373 0.70071,0.70877 1.28507,1.18897 3.12897,2.57128 5.54691,6.9296 6.34023,11.42821 0.23359,1.32462 0.42737,3.2004 0.43063,4.1684 0.007,2.22512 -0.7019,5.98997 -1.38766,7.3646 -0.28912,0.57955 -0.52567,1.18175 -0.52567,1.33823 0,0.50851 -2.54694,3.74766 -3.23729,4.11713 -1.18982,0.63677 -0.12307,1.06345 3.00031,1.20005 2.38753,0.10443 3.61041,-0.0274 6.31874,-0.68101 6.12983,-1.47939 9.3584,-3.39071 11.72132,-6.939 2.2638,-3.39947 2.86531,-7.0522 1.72534,-10.47706 -1.44486,-4.34078 -4.26518,-7.46445 -8.64762,-9.5777 l -1.4408,-0.69476 3.2,-0.0192 c 2.40484,-0.0145 3.91565,0.1708 6.08,0.74554 4.48884,1.19199 5.38247,1.70454 6.87882,3.94533 2.308,3.45627 6.39757,6.58775 9.47177,7.25276 1.52023,0.32886 2.88461,2.47997 4.51063,7.11161 0.8136,2.31744 0.88205,2.88798 0.87747,7.31353 -0.004,4.43999 -0.0726,4.992 -0.90742,7.36 -1.13092,3.20788 -3.03088,6.72301 -3.94359,7.2959 -0.22422,0.14074 -0.40768,0.39541 -0.40768,0.56592 0,0.40437 -4.05382,4.45818 -4.45817,4.45818 -0.1705,0 -0.42519,0.18345 -0.56592,0.40768 -0.32109,0.51155 -2.21914,1.72261 -4.77207,3.04489 -4.28211,2.2179 -10.59145,3.47663 -16.00668,3.19338 l -3.11146,-0.16275 1.0352,0.84488 c 3.33805,2.72438 10.30627,4.95765 15.3991,4.93532 1.7473,-0.008 3.14915,-0.1941 3.92,-0.52134 0.66,-0.28017 1.2,-0.39218 1.2,-0.24889 0,0.46598 -2.65085,3.54683 -3.05177,3.54683 -0.0785,0 -0.76231,0.468 -1.51959,1.04 -1.98457,1.49899 -9.3182,5.04 -10.43811,5.04 -0.32579,0 -1.1383,0.2281 -1.80553,0.5069 -1.07732,0.45012 -8.56322,1.45179 -10.225,1.36817 -0.352,-0.0177 -2.152,-0.21384 -4,-0.43585 z M 196.32,176.48646 c -1.76,-0.21653 -4.136,-0.64207 -5.28,-0.94563 -3.43354,-0.9111 -6.51078,-1.88202 -7.36,-2.32221 -0.44,-0.22807 -0.944,-0.41768 -1.12,-0.42134 -0.59275,-0.0123 -7.2616,-3.52174 -8.32,-4.3783 -0.176,-0.14244 -0.968,-0.67261 -1.76,-1.17816 -1.5977,-1.01984 -1.65734,-1.07161 -5.28945,-4.59107 -1.41319,-1.36936 -3.19449,-3.31775 -3.95844,-4.32975 -0.76396,-1.012 -1.51571,-1.84 -1.67056,-1.84 -0.15486,0 -0.28155,-0.18393 -0.28155,-0.40874 0,-0.51596 -1.83993,-2.15126 -2.42044,-2.15126 -0.72767,0 -1.68416,1.28502 -1.89782,2.54969 -0.1285,0.76061 0.0383,2.1902 0.45809,3.9269 0.36309,1.50198 0.66017,2.87991 0.66017,3.06205 0,0.47761 -2.4676,-2.01042 -4.2212,-4.25615 -0.82566,-1.05737 -1.68966,-2.15113 -1.92,-2.43057 -0.72859,-0.8839 -4.4188,-7.16484 -4.4188,-7.52104 0,-0.10679 -0.19644,-0.64792 -0.43654,-1.20252 -2.6226,-6.05795 -3.96173,-11.52834 -4.3986,-17.96836 -0.55388,-8.165 0.12246,-16.06375 2.00024,-23.36 1.49613,-5.81331 1.51388,-5.7906 1.50061,1.92 -0.0151,8.80197 0.45364,11.03208 2.81546,13.39391 1.52463,1.52461 2.62291,1.91656 5.78318,2.06384 2.74276,0.12782 3.08235,0.0724 4.96,-0.80918 2.38025,-1.11759 3.72637,-2.20023 5.45539,-4.38761 l 1.2699,-1.60654 -1.03428,-0.86346 -1.03429,-0.86346 -1.64054,1.30213 c -2.90179,2.30322 -5.37043,2.81837 -7.07616,1.47664 -1.73009,-1.36089 -1.76437,-1.67366 -1.76437,-16.09599 V 88.96 h 5.12 5.12 v -1.259725 c 0,-1.179517 -0.0644,-1.266109 -1.01169,-1.36 L 162.13663,86.24 l 1.16531,-1.12 c 1.57693,-1.515619 1.86084,-1.756026 5.00464,-4.237878 2.95032,-2.329108 3.1492,-2.479463 3.91817,-2.962122 0.2804,-0.176 1.17976,-0.788 1.99857,-1.36 0.81882,-0.572 1.62554,-1.04 1.79272,-1.04 0.16718,0 0.30396,-0.127594 0.30396,-0.283539 0,-0.155946 0.49788,-0.519799 1.1064,-0.808563 0.60853,-0.288762 1.19437,-0.667354 1.30188,-0.841309 0.10752,-0.173959 0.65363,-0.52721 1.2136,-0.785005 0.55996,-0.257795 1.23412,-0.592906 1.49812,-0.744688 0.264,-0.151782 0.768,-0.440064 1.12,-0.640624 0.84835,-0.483366 4.23382,-2.100861 5.43383,-2.59615 0.92773,-0.382909 0.93867,-0.376935 0.4,0.218297 -0.30461,0.336586 -0.55383,0.780637 -0.55383,0.986778 0,0.206141 -0.1099,0.374803 -0.24422,0.374803 -0.34877,0 -2.13897,3.946173 -2.9034,6.4 -0.35638,1.144 -0.74478,3.31344 -0.86311,4.820979 l -0.21514,2.740979 -2.28706,0.534468 c -6.72226,1.570924 -11.61023,6.464732 -13.18849,13.204249 -0.7987,3.410615 -0.51533,9.471635 0.58821,12.581195 2.06699,5.82438 6.82925,10.36121 12.26933,11.68854 1.03614,0.25281 2.67771,0.54898 3.64795,0.65816 l 1.76407,0.19851 0.71593,1.7539 c 0.39376,0.96464 0.71593,1.90798 0.71593,2.0963 0,0.37192 2.38216,5.20209 2.87146,5.82229 3.13561,3.97448 5.35263,6.10929 7.68854,7.40343 8.19024,4.53758 15.16648,4.78577 23.16149,0.82402 1.42918,-0.7082 3.17451,-1.64977 3.87851,-2.09237 0.704,-0.44261 1.532,-0.89126 1.84,-0.99701 0.308,-0.10576 0.56,-0.29508 0.56,-0.42072 0,-0.12563 0.612,-0.66806 1.36,-1.20539 1.66978,-1.19951 6.97925,-6.40756 8.72,-8.55344 0.704,-0.86784 1.496,-1.81557 1.76,-2.10607 0.264,-0.2905 0.624,-0.74652 0.8,-1.01339 0.176,-0.26686 1.0638,-1.57838 1.9729,-2.91449 0.9091,-1.33611 1.74268,-2.71213 1.85239,-3.05782 0.10972,-0.34569 0.43756,-0.82153 0.72852,-1.05742 0.31757,-0.25746 0.4384,-0.27777 0.30228,-0.0508 -0.22797,0.3801 3.03622,3.30193 3.68883,3.30193 0.27172,0 3.24841,2.2846 3.77507,2.89736 0.088,0.10238 0.88438,0.75314 1.76973,1.44613 1.61803,1.26648 1.95143,1.54494 3.61173,3.01651 0.49643,0.44 1.58531,1.376 2.41974,2.08 0.83442,0.704 1.93509,1.64801 2.44593,2.0978 l 0.92881,0.8178 -0.72375,1.4222 c -1.17731,2.31348 -3.70507,6.82158 -4.13564,7.37563 -2.15399,2.77176 -10.29786,-0.55982 -11.39284,-4.66071 -0.24083,-0.90193 0.10973,-2.39819 0.56766,-2.4229 0.10375,-0.006 0.4501,-0.20839 0.76967,-0.45066 0.49938,-0.37858 0.52229,-0.53454 0.16303,-1.10982 -0.22991,-0.36814 -0.57679,-0.66934 -0.77086,-0.66934 -0.19406,0 -1.38711,0.72634 -2.65122,1.6141 -2.4874,1.74682 -4.20198,3.78976 -4.20198,5.00666 0,1.39555 1.2217,3.18963 3.80851,5.59283 3.31338,3.07819 4.72293,3.7835 7.58653,3.79614 1.65409,0.007 2.06505,0.0912 1.64495,0.3359 -0.308,0.17939 -0.56,0.46137 -0.56,0.62661 0,0.32421 -0.69213,1.24891 -1.84,2.45828 -0.396,0.41721 -0.72,0.86402 -0.72,0.99291 0,0.12888 -0.252,0.4683 -0.56,0.75426 -0.308,0.28596 -0.97683,1.00196 -1.4863,1.59112 -1.8151,2.09899 -5.70971,6.03119 -5.97355,6.03119 -0.14759,0 -0.3835,0.18779 -0.52424,0.41732 -0.40804,0.66541 -5.2186,4.37912 -7.1441,5.51517 -0.30995,0.18287 -0.75891,0.49384 -0.99768,0.69104 -0.69894,0.57726 -8.52542,4.57542 -8.97978,4.58733 -0.22789,0.006 -0.99034,0.28908 -1.69434,0.62914 -0.704,0.34006 -1.496,0.62246 -1.76,0.62756 -0.264,0.005 -1.128,0.21486 -1.92,0.46612 -6.7429,2.13922 -16.33973,2.9149 -24.16,1.95278 z M 445.81052,132.48 c 0,-0.44 0.0726,-0.62 0.16141,-0.4 0.0888,0.22 0.0888,0.58 0,0.8 -0.0888,0.22 -0.16141,0.04 -0.16141,-0.4 z m -180.55505,-2.78685 c -0.58569,-0.49123 -1.50377,-1.29462 -2.04018,-1.78529 -0.53641,-0.49068 -1.93996,-1.64268 -3.119,-2.56 -2.66316,-2.07202 -2.86743,-2.46786 -1.27348,-2.46786 1.64477,0 4.54279,-0.7899 6.45724,-1.76003 l 1.5893,-0.80536 -0.19916,5.0427 c -0.10953,2.77348 -0.23306,5.08461 -0.27449,5.13584 -0.0414,0.0512 -0.55454,-0.30877 -1.14023,-0.8 z M 12.24,122.6508 c 0.484,-0.0733 1.276,-0.0733 1.76,0 0.484,0.0733 0.088,0.13331 -0.88,0.13331 -0.968,0 -1.364,-0.06 -0.88,-0.13331 z m 366.07999,-0.004 c 0.66,-0.069 1.74,-0.069 2.4,0 0.66,0.069 0.12,0.12552 -1.2,0.12552 -1.32,0 -1.86,-0.0565 -1.2,-0.12552 z M 414.99916,118.8 c -0.39802,-0.50754 -0.38672,-0.51886 0.12083,-0.12082 0.53303,0.41804 0.70256,0.68082 0.43917,0.68082 -0.0664,0 -0.31843,-0.252 -0.56,-0.56 z M 184,118.48506 c -3.05831,-1.07128 -6.61581,-5.83668 -7.82611,-10.48334 -0.63562,-2.44029 -0.63771,-7.46717 -0.004,-9.934488 1.1442,-4.455901 4.25043,-8.519683 7.19026,-9.406774 2.0699,-0.624592 5.31392,-0.499965 7.38137,0.283571 2.72021,1.030925 2.70501,1.009709 1.84728,2.577933 -2.45424,4.487158 -3.57171,6.993475 -4.7074,10.558038 -1.54043,4.83489 -2.44522,10.78209 -2.19523,14.42936 0.0954,1.39185 0.0791,2.51927 -0.0363,2.50538 -0.11536,-0.0139 -0.85774,-0.25225 -1.64974,-0.52968 z m 73.20826,0.21123 c -3.83892,-0.43141 -7.23506,-2.50226 -8.54653,-5.21138 -1.10547,-2.28361 -0.88815,-4.05951 1.39566,-11.40491 l 2.03961,-6.56 1.8715,0.09017 c 2.86263,0.137926 6.48718,1.039017 8.35149,2.07624 0.924,0.514073 1.68,1.064934 1.68,1.224134 0,0.1592 0.21094,0.289453 0.46875,0.289453 0.2578,0 0.62287,0.288 0.81125,0.64 0.18839,0.352003 0.53157,0.640003 0.76263,0.640003 0.48729,0 0.83737,4.4489 0.83737,10.64142 0,5.16241 -0.55769,6.30329 -3.52,7.20092 -1.70172,0.51564 -3.77132,0.64145 -6.15173,0.37395 z M 220.11918,117.52 c -0.39804,-0.50754 -0.38672,-0.51886 0.12082,-0.12082 0.308,0.24155 0.56,0.49355 0.56,0.56 0,0.26337 -0.26279,0.0939 -0.68082,-0.43918 z M 107.2807,110.88 c 0.004,-0.704 0.0691,-0.95432 0.14562,-0.55627 0.0765,0.39805 0.0736,0.97405 -0.006,1.28 -0.0801,0.30595 -0.14272,-0.0197 -0.13917,-0.72373 z m 283.21846,-1.28 c 0.003,-1.056 0.0615,-1.44942 0.13274,-0.87427 0.0712,0.57515 0.0698,1.43915 -0.003,1.92 -0.073,0.48085 -0.13127,0.0103 -0.12948,-1.04573 z M 240.88,109.08322 c -0.308,-0.17326 -0.56,-0.45789 -0.56,-0.6325 0,-0.17461 -0.252,-0.58995 -0.56,-0.92297 -0.73777,-0.79769 -1.79422,-2.95453 -2.48845,-5.08036 -0.63728,-1.95144 -1.1765,-8.052065 -0.7523,-8.51139 0.5734,-0.620899 0.27307,-2.330538 -0.62681,-3.567987 -2.08137,-2.86216 -5.27243,-4.92777 -7.78155,-5.037082 -0.64301,-0.028 -1.11441,-0.139686 -1.04755,-0.248163 0.0669,-0.10848 -0.1798,-0.46848 -0.54814,-0.8 -1.32188,-1.18977 -2.43742,-3.201357 -2.99614,-5.402768 -0.49838,-1.963706 -0.5176,-2.476822 -0.15577,-4.16 0.34675,-1.613027 0.44851,-1.792093 0.63646,-1.12 1.24589,4.455216 4.93146,6.858832 11.52025,7.513142 3.56267,0.353799 5.29065,0.74033 6.50032,1.454045 l 1.16722,0.688682 -0.51607,0.997965 c -0.36053,0.697187 -0.40605,1.03464 -0.15104,1.119644 0.57937,0.193124 2.90496,2.214464 2.73886,2.380554 -0.0826,0.08258 0.0218,0.89497 0.23191,1.805309 0.26501,1.14807 0.472,1.53039 0.67561,1.24791 0.19722,-0.273606 0.22331,-0.197225 0.0795,0.232749 -3.42822,10.24972 -4.39468,13.58626 -4.58946,15.84422 -0.19588,2.27082 -0.27102,2.48354 -0.77685,2.199 z M 84.593585,101.92 c -9.6e-4,-1.584 0.05314,-2.272346 0.120247,-1.52965 0.06711,0.74268 0.06791,2.03868 0.0019,2.88 -0.06613,0.8413 -0.121047,0.23365 -0.122019,-1.35035 z m 120.319995,0 c -9.6e-4,-1.584 0.0531,-2.272346 0.12025,-1.52965 0.0671,0.74268 0.0679,2.03868 0.002,2.88 -0.0661,0.8413 -0.12105,0.23365 -0.12202,-1.35035 z m 70.03969,1.22641 c -0.70084,-0.78682 -0.71328,-0.95356 -0.71328,-9.563114 V 84.82096 l -3.5535,-0.09048 -3.55351,-0.09048 1.55351,-1.743098 c 3.50822,-3.936371 10.57852,-10.6588 13.11319,-12.468009 0.59417,-0.424109 1.08031,-0.892109 1.08031,-1.04 0,-0.147891 0.16792,-0.268893 0.37316,-0.268893 0.20523,0 0.60123,-0.219312 0.88,-0.487357 0.42219,-0.405955 1.7959,-1.466742 3.40431,-2.628822 0.53628,-0.387466 1.49344,-0.985335 2.70253,-1.688083 0.616,-0.358032 1.696,-1.005693 2.4,-1.439248 1.11166,-0.684605 5.34237,-2.805117 8.32,-4.170144 1.42526,-0.653373 4.64279,-1.774589 5.92,-2.062948 0.616,-0.139075 2.056,-0.48624 3.2,-0.771475 1.144,-0.285235 3.376,-0.684441 4.96,-0.887126 2.68064,-0.343008 2.80247,-0.389591 1.76,-0.672877 -3.59587,-0.977171 -15.03496,1.275914 -21.68856,4.271853 -0.7527,0.338925 -1.5447,0.61943 -1.76,0.623344 -0.21529,0.0039 -0.75144,0.28871 -1.19144,0.632883 -0.44,0.344173 -1.016,0.632173 -1.28,0.64 -0.264,0.0078 -0.84,0.295827 -1.28,0.64 -0.44,0.344173 -1.04,0.62897 -1.33333,0.632883 -0.29333,0.0039 -0.58133,0.11744 -0.64,0.252282 -0.0587,0.134841 -1.11467,0.862227 -2.34667,1.616413 -3.9949,2.445536 -3.4194,2.065174 -5.44,3.595465 -2.04256,1.546925 -3.66243,2.896743 -5.24511,4.370682 -0.81043,0.754752 -1.58182,1.372275 -1.7142,1.372275 -0.13238,0 -0.24069,0.156931 -0.24069,0.348739 0,0.40056 -1.63685,2.211261 -1.99896,2.211261 -0.13257,0 -0.24104,-0.145568 -0.24104,-0.323488 0,-0.339389 0.99261,-2.717843 1.77886,-4.262445 0.25363,-0.498262 0.46435,-1.074262 0.46826,-1.28 0.004,-0.205737 0.28871,-0.734067 0.63288,-1.174067 0.34418,-0.44 0.62897,-1.029683 0.63289,-1.310403 0.004,-0.280723 0.29511,-0.77104 0.64711,-1.089597 0.352,-0.318557 0.64,-0.693654 0.64,-0.833555 0,-0.341434 1.98684,-3.298202 2.30693,-3.433111 0.13919,-0.05867 0.25307,-0.249987 0.25307,-0.425155 0,-0.345427 3.26527,-4.473997 5.10296,-6.452115 2.98166,-3.209517 5.6429,-5.666445 7.38989,-6.82255 0.69694,-0.46121 1.26715,-0.963424 1.26715,-1.116039 0,-0.152611 0.15729,-0.277475 0.34953,-0.277475 0.19224,0 0.7288,-0.298333 1.19235,-0.662963 1.12271,-0.883127 1.29736,-0.24128 0.26741,0.982752 -0.44278,0.526217 -0.89672,1.245536 -1.00874,1.598483 -0.11202,0.35295 -0.32118,0.641728 -0.46481,0.641728 -0.14362,0 -0.33532,0.324 -0.426,0.72 -0.0907,0.396 -0.35232,1.180787 -0.58142,1.743968 -0.36809,0.904899 -0.34749,1.100253 0.17718,1.68 0.32653,0.360819 0.79312,0.656032 1.03685,0.656032 0.46114,0 2.8045,-1.119392 3.42275,-1.635005 0.1952,-0.16279 1.3989,-1.108125 2.6749,-2.100745 1.276,-0.992621 2.32,-1.926151 2.32,-2.074509 0,-0.148359 0.216,-0.269741 0.48,-0.269741 0.264,0 0.48,-0.131734 0.48,-0.292746 0,-0.161011 0.756,-0.833276 1.68,-1.493923 0.924,-0.660646 1.82732,-1.356912 2.00738,-1.547254 0.35004,-0.370042 0.79188,-0.655434 2.99293,-1.933178 0.77017,-0.447094 1.53123,-0.812899 1.69126,-0.812899 0.16002,0 0.65394,-0.23784 1.09759,-0.528531 1.17969,-0.77296 4.93837,-2.029587 6.05084,-2.02296 l 0.96,0.0057 -0.8,0.625763 c -0.44,0.344173 -0.9078,0.62897 -1.03957,0.632883 -0.13176,0.0039 -1.10267,0.677376 -2.15758,1.496586 -1.80543,1.402045 -3.21612,3.191286 -3.1922,4.048822 0.0183,0.655626 1.18311,1.821709 1.81974,1.821709 0.3343,0 2.32721,-0.555331 4.42871,-1.23407 6.64846,-2.147312 9.10503,-2.606487 13.91636,-2.6012 2.86426,0.0032 5.00051,0.176896 6.38454,0.519273 1.144,0.282999 2.656,0.629143 3.36,0.769213 2.38026,0.473581 8.27792,2.974544 11.52451,4.887101 1.26535,0.745411 3.20087,1.963629 3.51549,2.212649 0.176,0.139306 1.292,0.989117 2.48,1.888468 1.188,0.89935 2.16,1.761945 2.16,1.916876 0,0.154928 0.16301,0.28169 0.36221,0.28169 0.30506,0 2.51779,2.092336 2.51779,2.380774 0,0.05236 -0.828,-0.09964 -1.84,-0.337785 -4.96989,-1.169523 -14.60566,-0.04448 -22.8,2.662067 -2.55536,0.844019 -7.17737,3.030486 -8.02195,3.794819 -0.55469,0.501971 -1.57805,0.623891 -1.57805,0.188 0,-0.149667 -0.9,-0.713417 -2,-1.252777 -4.99155,-2.447504 -10.84898,-2.974416 -16.58853,-1.492244 -1.75253,0.45257 -3.57021,1.021968 -4.03929,1.265332 -0.61359,0.318336 -1.5317,0.390969 -3.27252,0.258886 -2.18479,-0.16577 -2.66815,-0.08737 -4.97966,0.807699 -3.57523,1.38441 -4,1.730954 -4,3.263373 0,1.425664 0.0157,1.435626 1.25564,0.794458 0.69544,-0.359629 1.11604,-0.388855 1.8241,-0.126743 l 0.92026,0.340656 -2,2.047824 c -1.1,1.126304 -2,2.159335 -2,2.295626 0,0.136291 -0.252,0.475033 -0.56,0.752765 -0.308,0.277728 -0.848,0.912508 -1.2,1.41062 -0.352,0.498116 -0.964,1.295671 -1.36,1.772349 -0.396,0.476679 -0.72,1.025901 -0.72,1.220496 0,0.194592 -0.1403,0.353805 -0.31178,0.353805 -0.17148,0 -0.52812,0.418358 -0.79254,0.929683 -0.26442,0.511325 -0.66411,1.129408 -0.88822,1.373514 -0.46173,0.50295 -0.76286,0.972739 -2.21578,3.456803 -0.56618,0.968 -1.12683,1.832 -1.24589,1.92 -0.11907,0.088 -0.47267,0.664 -0.78579,1.28 -0.31311,0.616 -0.66013,1.192 -0.77116,1.28 -0.11102,0.088 -0.37789,0.52 -0.59303,0.96 -0.21514,0.44 -0.51452,1.016 -0.66529,1.28 -0.96336,1.68681 -1.58197,2.883562 -3.57675,6.919482 -1.22857,2.485716 -2.23377,4.673216 -2.23377,4.861116 0,0.69102 -0.51216,0.62558 -1.20672,-0.15419 z M 207.84,103.04 c 0.10877,-0.176 0.38497,-0.32 0.61377,-0.32 0.5444,0 4.34623,-3.82903 4.34623,-4.377328 0,-0.23247 0.12088,-0.422672 0.26863,-0.422672 0.31597,0 1.01137,-1.430765 1.01137,-2.080861 0,-0.381305 -0.20953,-0.375056 -1.36,0.04055 -1.56759,0.566294 -6.32266,0.992531 -6.31462,0.566032 0.003,-0.157149 0.57896,-0.851034 1.28,-1.541968 0.70104,-0.690931 1.27462,-1.446931 1.27462,-1.68 0,-0.233066 0.12653,-0.423757 0.28117,-0.423757 0.15465,0 0.45953,-0.468 0.67752,-1.04 0.21799,-0.572 0.62545,-1.544 0.90547,-2.16 0.28001,-0.616 0.56767,-2.179792 0.63922,-3.475094 0.11089,-2.00712 0.002,-2.674624 -0.74046,-4.517652 C 209.92967,79.636797 207.77984,76.8 207.07979,76.8 c -0.15479,0 -0.44121,-0.192525 -0.6365,-0.42783 -0.19528,-0.235306 -1.3611,-0.822535 -2.5907,-1.304951 -2.10715,-0.82671 -2.47981,-0.871091 -6.48411,-0.772169 -4.26639,0.105392 -4.71839,0.2059 -7.68848,1.709644 -1.14058,0.577466 -1.12132,0.216148 0.10846,-2.035155 1.62609,-2.9768 4.77664,-6.765718 6.69333,-8.049539 0.39415,-0.264 0.93978,-0.695085 1.21253,-0.957968 0.52122,-0.502381 1.2942,-0.990362 2.62568,-1.657587 2.47218,-1.238867 2.47184,-1.249203 -0.0682,-2.034989 -1.28252,-0.396768 -3.41185,-0.973949 -4.73185,-1.282624 -1.32,-0.308672 -2.51283,-0.623466 -2.65073,-0.699539 -0.35456,-0.195603 1.2061,-1.367293 1.8212,-1.367293 0.28024,0 0.50953,-0.108848 0.50953,-0.241885 0,-0.315318 2.20718,-1.207952 6.88,-2.782419 1.24474,-0.419408 7.35818,-1.609603 9.28,-1.806675 0.176,-0.01805 -0.04,-0.148109 -0.48,-0.289021 -1.32996,-0.425926 -7.06425,-0.349094 -10.26789,0.137578 -4.49103,0.682243 -7.84697,1.682963 -11.17211,3.331456 -1.58628,0.786419 -3.98032,2.336403 -4.10667,2.658793 -0.0587,0.149696 -0.25151,0.272173 -0.42854,0.272173 -0.54529,0 -3.17607,2.891469 -2.74321,3.015034 0.21913,0.06255 1.62242,0.284259 3.11842,0.492681 3.84155,0.535207 6.08,1.029728 6.08,1.343207 0,0.147993 -0.3408,0.269078 -0.75733,0.269078 -0.41653,0 -1.53253,0.304051 -2.48,0.67567 -4.20661,1.649933 -5.01481,1.987914 -6.52267,2.72776 -0.88,0.431776 -2.176,1.125143 -2.88,1.54081 -0.704,0.415667 -1.64,0.958768 -2.08,1.20689 -1.83315,1.03374 -2.39799,1.389795 -2.81795,1.776329 -0.24348,0.224103 -0.86105,0.623802 -1.37237,0.888218 -0.51133,0.264416 -0.92968,0.621059 -0.92968,0.792541 0,0.171481 -0.15169,0.311782 -0.33709,0.311782 -0.18539,0 -1.35414,0.828 -2.59721,1.84 -3.78082,3.078003 -3.49869,3.044195 -2.84485,0.34088 0.70875,-2.930368 1.29915,-6.634013 1.29915,-8.149693 0,-4.043949 -2.60332,-6.963907 -7.12581,-7.992525 -2.25634,-0.513193 -5.02812,-0.496649 -10.47419,0.06252 l -1.76,0.180707 1.44,-1.291395 c 0.792,-0.710266 1.62,-1.295693 1.84,-1.300944 0.22,-0.0052 0.4,-0.132026 0.4,-0.281715 0,-0.262474 3.04186,-2.287834 3.43606,-2.287834 0.10645,0 0.42088,-0.195818 0.69874,-0.435149 0.50116,-0.43167 2.27467,-1.432077 6.5852,-3.714601 4.39299,-2.326192 6.08919,-3.306074 6.74062,-3.894013 0.36334,-0.32793 0.75192,-0.596237 0.86351,-0.596237 0.46017,0 1.85738,-1.57769 2.27335,-2.566995 0.38639,-0.918941 0.38118,-1.259389 -0.0387,-2.527498 -0.26687,-0.806029 -0.75378,-1.762787 -1.08201,-2.126131 -0.32824,-0.363344 -0.59733,-0.795344 -0.598,-0.96 C 170.23721,38.145613 164.9474,32.96 164.5473,32.96 c -0.16991,0 -0.50157,-0.232109 -0.73701,-0.515795 -0.23544,-0.28369 -0.72107,-0.64733 -1.07918,-0.808094 -1.19484,-0.536388 10.67002,-0.01837 12.78889,0.558363 1.056,0.287433 2.2755,0.60007 2.71001,0.694755 0.77788,0.169504 0.78186,0.159689 0.25885,-0.638519 -1.97532,-3.014714 -2.82562,-7.699414 -2.33936,-12.888557 l 0.23644,-2.523192 0.59992,0.780519 c 0.32994,0.429286 0.60311,0.898575 0.60702,1.042864 0.0245,0.901714 5.28986,6.937656 6.05201,6.937656 0.19531,0 0.35511,0.142529 0.35511,0.316731 0,0.174202 0.828,0.857795 1.84,1.519094 1.012,0.661299 1.912,1.287561 2,1.391693 0.088,0.104132 0.952,0.639672 1.92,1.190088 1.67605,0.953024 2.47336,1.419043 5.19144,3.034343 0.65529,0.389427 2.09529,1.195763 3.2,1.791856 1.10471,0.596093 2.08056,1.182937 2.16856,1.304099 0.088,0.121162 0.628,0.492499 1.2,0.82519 0.572,0.332692 1.04,0.717847 1.04,0.855901 0,0.138051 0.19483,0.251005 0.43296,0.251005 0.59412,0 5.96704,5.06841 5.96704,5.628861 0,0.248128 0.11787,0.451139 0.26194,0.451139 0.14407,0 0.49661,0.468 0.78342,1.04 l 0.52147,1.04 -0.1856,-1.12 c -0.21351,-1.288454 -1.17121,-3.395843 -2.43923,-5.367472 -1.43296,-2.228096 -7.54176,-8.069549 -8.44324,-8.073727 -0.14232,-6.72e-4 -0.53996,-0.68466 -0.88364,-1.52 -1.20519,-2.929269 -1.23019,-13.701592 -0.0406,-17.518801 0.27423,-0.88 0.50016,-1.904083 0.50206,-2.275739 0.004,-0.7953877 1.76063,-4.7858517 2.23599,-5.0796437 0.19326,-0.1194397 0.32953,0.1660185 0.33249,0.6964973 0.008,1.3627996 1.15965,6.5392574 1.77188,7.9615334 1.2342,2.867179 3.18339,6.186309 3.89542,6.633253 0.22423,0.140745 0.40769,0.452745 0.40769,0.693333 0,0.240588 0.108,0.485433 0.24,0.544099 0.132,0.05867 0.816,0.824601 1.52,1.702075 1.73848,2.166868 6.73729,7.163209 10.24,10.234944 1.584,1.389104 3.27725,2.931546 3.76278,3.427645 0.48553,0.496102 0.96637,0.902003 1.06854,0.902003 0.10217,0 0.79896,0.612 1.54843,1.36 0.74946,0.748 2.24861,2.175667 3.33145,3.172592 1.08284,0.996925 1.9688,1.96177 1.9688,2.144099 0,0.18233 0.19979,0.446663 0.44399,0.587408 0.93972,0.541616 4.04817,4.740522 5.04581,6.815901 0.29612,0.616 0.55004,0.957587 0.56429,0.759078 0.0804,-1.120028 -3.6747,-8.381548 -4.50192,-8.705744 -0.1497,-0.05867 -0.27217,-0.2531 -0.27217,-0.432076 0,-0.604484 -5.0193,-6.16248 -8.03853,-8.901258 -1.64918,-1.496 -3.6321,-3.296 -4.40649,-4 -0.77438,-0.704 -2.74817,-2.600684 -4.3862,-4.214853 -2.72394,-2.684268 -3.02052,-3.098048 -3.47351,-4.846191 -0.9494,-3.663878 -0.28273,-9.889533 1.46267,-13.658956 l 0.74087,-1.6 0.23788,2.4 c 0.33559,3.385925 1.25509,6.419485 2.76437,9.12 1.41747,2.536253 2.05141,3.521846 2.3327,3.626667 0.15743,0.05867 0.28624,0.278664 0.28624,0.488882 0,0.21022 0.252,0.612825 0.56,0.894679 0.308,0.281854 0.91967,0.997856 1.35928,1.591117 1.03788,1.400651 7.37244,7.738738 10.99755,11.003673 4.03241,3.631763 8.41147,8.054828 9.56505,9.661158 0.54264,0.755603 1.0894,1.373824 1.21504,1.373824 0.12564,0 0.31521,0.252 0.42127,0.56 0.10606,0.308 0.50292,1.064 0.88192,1.68 3.16972,5.151914 3.859,7.27007 3.91464,12.029859 0.0441,3.772464 0.065,3.879175 0.82904,4.24 0.43109,0.203578 0.89167,0.370141 1.02351,0.370141 0.92694,0 2.83269,3.083056 2.83269,4.582618 v 0.805897 l 1.30318,-0.511901 c 1.37255,-0.539155 4.15613,-3.08855 5.14787,-4.71478 L 260.7976,64.8 260.782,67.68 c -0.0177,3.250941 -0.56378,6.51831 -1.52596,9.12944 -0.63883,1.733622 -2.57513,5.754477 -2.92337,6.07056 -0.0969,0.088 -0.60193,0.736 -1.12217,1.44 -0.52024,0.704 -1.5089,1.842867 -2.19702,2.530819 -1.16288,1.162599 -1.27404,1.207738 -1.57599,0.64 -0.56322,-1.058992 -1.59773,-2.038979 -1.93342,-1.831513 -0.17995,0.111219 -0.22483,0.04086 -0.10136,-0.158919 0.12186,-0.197174 -0.007,-1.143264 -0.28541,-2.102422 -0.53338,-1.834768 -2.00941,-3.586557 -3.84008,-4.557501 -1.60825,-0.852976 -5.9018,-1.747267 -9.34513,-1.94647 l -3.26795,-0.189056 0.58597,-0.832471 c 0.32227,-0.457856 0.69447,-1.192467 0.8271,-1.632467 0.13263,-0.44 0.37251,-0.964755 0.53305,-1.166118 0.16055,-0.201367 0.37844,-1.096848 0.48422,-1.989959 0.26086,-2.202566 -0.28502,-2.970285 -2.66759,-3.75167 -3.76221,-1.23385 -14.39099,-0.647555 -21.14011,1.166115 -1.27229,0.341898 -2.60429,0.621632 -2.96,0.621632 -0.35571,0 -0.64675,0.144 -0.64675,0.32 0,0.176 0.82053,0.32 1.82339,0.32 2.18482,0 6.96914,0.597197 8.1214,1.013741 l 0.82478,0.29816 -0.90478,1.899622 c -0.49764,1.044794 -0.90696,2.081616 -0.90961,2.304051 -0.003,0.222436 -0.21233,0.980426 -0.46595,1.684426 -0.62451,1.733482 -0.62074,4.62983 0.007,5.526323 1.11331,1.589475 2.55257,1.48113 4.54648,-0.342249 l 0.72289,-0.661066 -0.6563,1.898496 c -0.36097,1.044173 -0.59803,2.126496 -0.5268,2.405162 0.0712,0.278668 -0.0401,0.506668 -0.24741,0.506668 -0.62796,0 -2.35909,1.431098 -3.19843,2.64409 -1.98121,2.863232 -2.40604,7.457549 -0.97404,10.533654 0.85297,1.832262 0.81252,2.288922 -0.20272,2.288922 -0.35319,0 -0.8993,0.13762 -1.21358,0.30582 -0.68906,0.36877 -5.00978,1.29355 -6.04539,1.29392 -0.41115,1.4e-4 -0.65116,-0.14168 -0.54111,-0.31974 z m 27.53392,-41.818454 c -0.82169,-3.273885 -5.94091,-8.482816 -9.35616,-9.520109 -0.77357,-0.234954 -0.76188,-0.137427 0.34701,2.893609 1.39993,3.826586 4.13431,6.70176 6.79854,7.148596 2.49571,0.418572 2.44944,0.429497 2.21061,-0.522096 z M 146.29052,100.16 c 0,-0.44 0.0726,-0.62 0.16141,-0.4 0.0888,0.22 0.0888,0.58 0,0.8 -0.0888,0.22 -0.16141,0.04 -0.16141,-0.4 z m -6.0941,-1.884934 c 0.11712,-1.163287 0.44484,-2.745172 0.72827,-3.5153 0.28342,-0.770128 0.51531,-1.643078 0.51531,-1.939894 0,-0.684198 1.24771,-3.303254 1.72216,-3.614973 0.19681,-0.129305 0.96984,-0.237305 1.71784,-0.24 l 1.36,-0.0049 v 3.469347 3.469347 l -1.30091,0.38976 c -0.85835,0.257172 -1.92254,1.021127 -3.12826,2.245719 l -1.82736,1.855958 z m 82.13384,-2.10193 c -0.47835,-0.570605 -1.02202,-1.438013 -1.20815,-1.927568 -0.40886,-1.075398 -0.11987,-2.331328 0.41367,-1.797779 C 221.7295,92.641504 222.9392,92.8 224.224,92.8 c 1.2848,0 2.336,0.07783 2.336,0.172957 0,0.291958 -1.3868,2.155171 -2.4,3.224483 l -0.96,1.013165 z m 42.46973,-1.094499 c -0.704,-0.491056 -1.94169,-1.161165 -2.75044,-1.489127 l -1.47044,-0.5963 1.31044,-1.840861 c 1.92852,-2.70912 2.58592,-2.796605 3.75753,-0.500048 0.69402,1.36039 1.23141,5.359305 0.71673,5.33343 -0.1561,-0.0078 -0.85982,-0.416038 -1.56382,-0.907094 z M 9.0558923,92.8 c 0,-0.968 0.059989,-1.364 0.1333088,-0.88 0.07332,0.484 0.07332,1.276 0,1.76 -0.07332,0.484 -0.1333088,0.088 -0.1333088,-0.88 z m 289.2799977,0 c 0,-0.968 0.06,-1.364 0.1333,-0.88 0.0733,0.484 0.0733,1.276 0,1.76 -0.0733,0.484 -0.1333,0.088 -0.1333,-0.88 z M 17.342383,87.2 c 0.0065,-0.528 0.07824,-0.705261 0.159374,-0.39391 0.08113,0.31135 0.0758,0.74335 -0.01186,0.96 C 17.402244,87.982739 17.335862,87.728 17.342383,87.2 Z m 289.279997,0 c 0.007,-0.528 0.0782,-0.705261 0.15937,-0.39391 0.0811,0.31135 0.0758,0.74335 -0.0119,0.96 -0.0877,0.216649 -0.15404,-0.03809 -0.14752,-0.56609 z m -45.73523,-0.8 c 0,-0.792 0.0624,-1.116 0.13868,-0.72 0.0763,0.396 0.0763,1.044 0,1.44 -0.0763,0.396 -0.13868,0.072 -0.13868,-0.72 z M 30.130526,86.72 c 0,-0.44 0.07263,-0.62 0.161403,-0.4 0.08877,0.22 0.08877,0.58 0,0.8 -0.08877,0.22 -0.161403,0.04 -0.161403,-0.4 z m 289.279994,0 c 0,-0.44 0.0726,-0.62 0.1614,-0.4 0.0888,0.22 0.0888,0.58 0,0.8 -0.0888,0.22 -0.1614,0.04 -0.1614,-0.4 z M 193.92,85.910077 c -1.94649,-1.029197 -3.97507,-1.428746 -7.29575,-1.436979 l -2.78425,-0.0069 1.6445,-1.513098 c 2.03294,-1.87048 2.17809,-1.980086 3.9555,-2.986822 3.08123,-1.745239 4.36173,-2.046276 8.70409,-2.046276 2.28356,0 4.20373,0.140196 4.38283,0.32 0.21199,0.212829 -0.32263,1.016615 -1.59631,2.4 -1.05327,1.144 -2.36595,2.692 -2.91707,3.44 -0.55112,0.748 -1.10483,1.36 -1.23047,1.36 -0.12564,0 -0.30374,0.288 -0.39579,0.64 -0.21192,0.810381 -0.67337,0.778602 -2.46728,-0.169923 z m -36.53321,0.251686 -3.09321,-0.104291 -0.10741,-5.348736 C 154.10054,76.44495 153.96994,75.16527 153.54229,74.4 l -0.53647,-0.96 2.7083,-2.628166 c 1.48956,-1.445492 3.35125,-3.089904 4.13709,-3.654247 0.78583,-0.564345 1.42879,-1.128873 1.42879,-1.254512 0,-0.125638 0.268,-0.298515 0.59556,-0.384176 0.81549,-0.213254 1.64444,1.259392 1.64444,2.921379 0,0.715844 -0.2094,2.349626 -0.46532,3.630628 -0.25592,1.281001 -0.75992,3.810576 -1.12,5.621273 -0.36008,1.810698 -0.65468,4.510698 -0.65468,6 0,1.988643 -0.10624,2.690032 -0.4,2.640848 -0.22,-0.03683 -1.79195,-0.113904 -3.49321,-0.171264 z m -12.77002,-0.924918 c 0.36478,-0.463735 0.66323,-1.022103 0.66323,-1.240816 0,-0.218717 0.216,-0.576928 0.48,-0.796029 0.41604,-0.345283 0.48,-0.179952 0.48,1.240819 V 86.08 h -1.14323 -1.14322 z M 21.76,70.279181 c 0,-0.06645 0.252,-0.318448 0.56,-0.56 0.507537,-0.398039 0.518856,-0.38672 0.120817,0.120819 C 22.022779,70.37304 21.76,70.542554 21.76,70.279181 Z m 289.27999,0 c 0,-0.06645 0.252,-0.318448 0.56,-0.56 0.50754,-0.398039 0.51886,-0.38672 0.12082,0.120819 -0.41804,0.53304 -0.68082,0.702554 -0.68082,0.439181 z M 43.47918,68.56 c -0.398038,-0.507539 -0.38672,-0.518858 0.120819,-0.120819 0.53304,0.418038 0.702554,0.680819 0.439181,0.680819 -0.06645,0 -0.318448,-0.252 -0.56,-0.56 z m 289.27998,0 c -0.39801,-0.507539 -0.38672,-0.518858 0.12083,-0.120819 0.53303,0.418038 0.70256,0.680819 0.43917,0.680819 -0.0664,0 -0.31843,-0.252 -0.56,-0.56 z"
         id="path246" />
      <path
         style="fill:#494949;fill-opacity:1;stroke-width:0.32"
         d="m 254.33999,148.5814 c 0.231,-0.0924 0.50701,-0.0811 0.61334,0.0252 0.10633,0.10634 -0.0827,0.18197 -0.42,0.16807 -0.37278,-0.0154 -0.44861,-0.0912 -0.19334,-0.19333 z m -4.89773,-0.41774 c -0.11211,-0.18139 0.0163,-0.23504 0.30111,-0.12576 0.55438,0.21273 0.65581,0.4421 0.19551,0.4421 -0.16561,0 -0.38909,-0.14235 -0.49662,-0.31634 z m -1.66442,-1.147 -0.89785,-0.82335 1.04,0.72352 c 0.572,0.39794 1.04,0.76845 1.04,0.82335 0,0.25259 -0.35395,0.0359 -1.18215,-0.72352 z m -3.30709,-2.93666 -2.07076,-2.16 2.16,2.07076 c 1.188,1.13891 2.16,2.11091 2.16,2.16 0,0.23552 -0.32583,-0.0645 -2.24924,-2.07076 z m 10.33533,-0.94176 c 0.31135,-0.0811 0.74335,-0.0758 0.96,0.0119 0.21665,0.0877 -0.0381,0.15403 -0.56609,0.14751 -0.528,-0.007 -0.70526,-0.0782 -0.39391,-0.15937 z m 1.75391,0.01 c 0.22,-0.0888 0.58,-0.0888 0.8,0 0.22,0.0888 0.04,0.1614 -0.4,0.1614 -0.44,0 -0.62,-0.0726 -0.4,-0.1614 z m -4.57883,-0.92573 c -0.5857,-0.46924 -0.57549,-0.4759 0.17883,-0.11665 0.97953,0.4665 1.16107,0.61431 0.7545,0.61431 -0.1717,0 -0.5917,-0.22395 -0.93333,-0.49766 z m -2.72539,-1.98234 -0.77578,-0.88 0.88,0.77578 c 0.8225,0.72508 1.02675,0.98422 0.77578,0.98422 -0.0573,0 -0.45331,-0.396 -0.88,-0.88 z m -7.61897,-0.57884 c -0.0203,-0.53836 0.18987,-1.25836 0.46693,-1.6 0.27705,-0.34164 0.39332,-0.41005 0.25838,-0.15203 -0.13493,0.25802 -0.34505,0.97802 -0.46692,1.6 -0.22041,1.12482 -0.22179,1.12563 -0.25839,0.15203 z m 30.04319,0.0188 c 0.41336,-0.44 0.82357,-0.8 0.91157,-0.8 0.088,0 -0.17821,0.36 -0.59157,0.8 -0.41336,0.44 -0.82356,0.8 -0.91156,0.8 -0.088,0 0.1782,-0.36 0.59156,-0.8 z m 143.36,-1.24082 c 0,-0.0665 0.252,-0.31845 0.56,-0.56 0.50755,-0.39804 0.51885,-0.38672 0.12083,0.12082 -0.41804,0.53304 -0.68083,0.70255 -0.68083,0.43918 z m -167.65473,-1.34585 c 0.0154,-0.37278 0.0912,-0.4486 0.19333,-0.19333 0.0924,0.231 0.0811,0.507 -0.0252,0.61333 -0.10633,0.10634 -0.18196,-0.0827 -0.16807,-0.42 z m -4.82527,0.0865 c 0,-0.0551 0.468,-0.52307 1.04,-1.04 l 1.04,-0.93987 -0.93986,1.04 c -0.87609,0.96943 -1.14014,1.18709 -1.14014,0.93987 z m 4.8,-1.16098 c 0,-0.16562 0.14236,-0.3891 0.31634,-0.49662 0.1814,-0.11211 0.23504,0.0164 0.12576,0.30111 -0.21273,0.55437 -0.4421,0.6558 -0.4421,0.19551 z m 26.26527,-0.20556 c 0.0154,-0.37278 0.0912,-0.4486 0.19333,-0.19333 0.0924,0.231 0.0811,0.507 -0.0252,0.61333 -0.10633,0.10634 -0.18196,-0.0827 -0.16807,-0.42 z m -28.82527,-0.57415 c 0,-0.0665 0.252,-0.31845 0.56,-0.56 0.50754,-0.39804 0.51886,-0.38672 0.12082,0.12082 -0.41803,0.53304 -0.68082,0.70255 -0.68082,0.43918 z M 274.06598,121.92 c 0,-7.128 0.0421,-10.044 0.0936,-6.48 0.0515,3.564 0.0515,9.396 0,12.96 -0.0515,3.564 -0.0936,0.648 -0.0936,-6.48 z m -24.92541,11.9338 c -0.17366,-0.45606 -0.1369,-0.49282 0.17913,-0.17913 0.2187,0.21706 0.31702,0.47527 0.21849,0.5738 -0.0985,0.0985 -0.27745,-0.0791 -0.39762,-0.39467 z M 445.86242,129.92 c 0,-1.144 0.0581,-1.612 0.12906,-1.04 0.071,0.572 0.071,1.508 0,2.08 -0.071,0.572 -0.12906,0.104 -0.12906,-1.04 z M 266.67535,126.4 c 0,-1.672 0.0539,-2.356 0.11986,-1.52 0.0659,0.836 0.0659,2.204 0,3.04 -0.0659,0.836 -0.11986,0.152 -0.11986,-1.52 z M 157.38,123.9414 c 0.231,-0.0924 0.507,-0.0811 0.61333,0.0252 0.10633,0.10634 -0.0827,0.18197 -0.42,0.16807 -0.37278,-0.0154 -0.44861,-0.0912 -0.19333,-0.19333 z m -7.66082,-1.3014 c -0.39804,-0.50754 -0.38672,-0.51886 0.12082,-0.12082 0.53304,0.41804 0.70255,0.68082 0.43918,0.68082 -0.0665,0 -0.31845,-0.252 -0.56,-0.56 z m 35.64691,0.33824 c 0.31135,-0.0811 0.74335,-0.0758 0.96,0.0119 0.21665,0.0876 -0.0381,0.15403 -0.56609,0.14751 -0.528,-0.007 -0.70526,-0.0782 -0.39391,-0.15937 z M 15.605731,122.64809 c 0.575152,-0.0712 1.439152,-0.0697 1.92,0.003 0.480848,0.073 0.01027,0.13129 -1.045731,0.12949 -1.056,-0.002 -1.449421,-0.0615 -0.874269,-0.13275 z m 79.037998,0.006 c 0.398051,-0.0765 0.974051,-0.0736 1.28,0.006 0.305949,0.0801 -0.01974,0.14272 -0.723731,0.13917 -0.704,-0.004 -0.95432,-0.0691 -0.556269,-0.14563 z m 88.016271,0.008 c 0.23099,-0.0924 0.507,-0.0811 0.61333,0.0252 0.10633,0.10633 -0.0827,0.18196 -0.42,0.16807 -0.37278,-0.0154 -0.44861,-0.0912 -0.19333,-0.19333 z m 76.77999,0.007 c 0.22,-0.0888 0.58,-0.0888 0.8,0 0.22,0.0888 0.04,0.1614 -0.4,0.1614 -0.44,0 -0.62,-0.0726 -0.4,-0.1614 z m 29.84,-1.04919 c 0,-0.69361 0.11065,-1.3295 0.24589,-1.41308 0.13524,-0.0836 0.19275,0.40532 0.12779,1.08645 l -0.1181,1.23841 2.35221,0.11108 2.35221,0.11109 -2.48,0.0636 -2.48,0.0636 v -1.26111 z m 93.35287,1.03016 c 0.56806,-0.0707 1.57606,-0.0719 2.24,-0.003 0.66393,0.0693 0.19913,0.12711 -1.03287,0.12853 -1.232,0.001 -1.7752,-0.0553 -1.20713,-0.12595 z M 181.06,122.34142 c 0.23099,-0.0924 0.507,-0.0811 0.61333,0.0252 0.10633,0.10633 -0.0827,0.18196 -0.42,0.16807 -0.37278,-0.0154 -0.44861,-0.0912 -0.19333,-0.19333 z m 80.31999,0 c 0.231,-0.0924 0.50701,-0.0811 0.61334,0.0252 0.10633,0.10633 -0.0827,0.18196 -0.42,0.16807 -0.37278,-0.0154 -0.44861,-0.0912 -0.19334,-0.19333 z m 84.49546,-0.7604 -0.75546,-0.65899 0.88,0.5358 c 0.484,0.29469 0.88,0.59123 0.88,0.65899 0,0.24987 -0.26736,0.10727 -1.00454,-0.5358 z M 163.50662,120.56 c 0.78465,-0.836 1.46865,-1.52 1.52,-1.52 0.24029,0 -0.0138,0.28731 -1.42662,1.61337 L 162.08,122.08 Z M 178.56,121.6 c -0.264,-0.17061 -0.336,-0.3102 -0.16,-0.3102 0.176,0 0.536,0.13959 0.8,0.3102 0.264,0.17061 0.336,0.3102 0.16,0.3102 -0.176,0 -0.536,-0.13959 -0.8,-0.3102 z m -30.44082,-0.56 c -0.39804,-0.50754 -0.38672,-0.51886 0.12082,-0.12082 0.53304,0.41804 0.70255,0.68082 0.43918,0.68082 -0.0665,0 -0.31845,-0.252 -0.56,-0.56 z m 27.60883,-1.04201 c -0.73041,-0.5291 -1.32801,-1.04043 -1.32801,-1.13628 0,-0.15035 1.80284,1.07687 2.704,1.84064 0.75793,0.64238 -0.17882,0.16287 -1.37599,-0.70436 z m 72.04983,0.13867 -0.89785,-0.82335 1.04,0.72352 c 0.572,0.39794 1.04,0.76845 1.04,0.82335 0,0.25259 -0.35395,0.0359 -1.18215,-0.72352 z m 17.82215,0.68586 c 0,-0.088 0.288,-0.31414 0.64,-0.50252 0.352,-0.18838 0.64,-0.27052 0.64,-0.18252 0,0.088 -0.288,0.31414 -0.64,0.50252 -0.352,0.18838 -0.64,0.27052 -0.64,0.18252 z m 77.58797,-1.54252 -1.58797,-1.68 1.68,1.58797 c 0.924,0.87338 1.68,1.62938 1.68,1.68 0,0.23878 -0.29645,-0.0269 -1.77203,-1.58797 z m -29.66424,0.81368 c 0.39806,-0.0765 0.97406,-0.0736 1.28,0.006 0.30595,0.0801 -0.0197,0.14272 -0.72373,0.13917 -0.704,-0.004 -0.95432,-0.0691 -0.55627,-0.14563 z m -2.54373,-0.31228 c 0.231,-0.0924 0.50701,-0.0811 0.61334,0.0252 0.10633,0.10634 -0.0827,0.18197 -0.42,0.16807 -0.37279,-0.0154 -0.44861,-0.0912 -0.19334,-0.19333 z m -153.61626,-0.64772 c 0.39805,-0.0765 0.97405,-0.0736 1.28,0.006 0.30595,0.0801 -0.0198,0.14272 -0.72373,0.13917 -0.704,-0.004 -0.95432,-0.0691 -0.55627,-0.14563 z m 88.37204,-0.65368 -0.77578,-0.88 0.88,0.77578 c 0.484,0.42668 0.88,0.82268 0.88,0.88 0,0.25097 -0.25913,0.0467 -0.98422,-0.77578 z m 62.55382,0.16 -0.6096,-0.72 0.8,0.63659 c 0.44,0.35012 0.86,0.67412 0.93334,0.72 0.0733,0.0459 -0.0123,0.0834 -0.19041,0.0834 -0.17805,0 -0.59805,-0.324 -0.93333,-0.72 z m -153.11381,-0.48 -0.77578,-0.88 0.96,0.8 c 0.528,0.44 1.02,0.836 1.09333,0.88 0.0733,0.044 -0.01,0.08 -0.18422,0.08 -0.17465,0 -0.66665,-0.396 -1.09333,-0.88 z m 102.34795,0.65368 c 0.39805,-0.0765 0.97405,-0.0736 1.28,0.006 0.30594,0.0801 -0.0197,0.14272 -0.72374,0.13917 -0.704,-0.004 -0.95432,-0.0691 -0.55626,-0.14563 z m 3.03626,0.006 c 0.308,-0.0805 0.812,-0.0805 1.12,0 0.308,0.0805 0.056,0.14635 -0.56,0.14635 -0.616,0 -0.868,-0.0659 -0.56,-0.14635 z m -95.02179,-0.74829 c 0.49335,-0.70436 0.49169,-0.7992 -0.0247,-1.41308 -0.55054,-0.65449 -0.5497,-0.65481 0.15618,-0.0578 0.5474,0.463 0.63848,0.73335 0.39827,1.18217 -0.17128,0.32005 -0.47954,0.68581 -0.68502,0.8128 -0.20548,0.127 -0.13562,-0.10886 0.15525,-0.52413 z m 7.55758,-0.23111 -0.77578,-0.88 0.88,0.77578 c 0.82249,0.72508 1.02675,0.98422 0.77578,0.98422 -0.0573,0 -0.45332,-0.396 -0.88,-0.88 z m -120.166184,-0.16 -0.609597,-0.72 0.72,0.6096 c 0.676621,0.57287 0.865677,0.8304 0.609597,0.8304 -0.06072,0 -0.384723,-0.324 -0.72,-0.72 z m 93.655664,-0.10667 c 0.0154,-0.37278 0.0912,-0.4486 0.19333,-0.19333 0.0924,0.231 0.0811,0.507 -0.0252,0.61333 -0.10633,0.10634 -0.18196,-0.0827 -0.16807,-0.42 z m 15.33474,0.0658 c 0,-0.0664 0.252,-0.31845 0.56,-0.56 0.50754,-0.39804 0.51885,-0.38672 0.12082,0.12082 -0.41804,0.53304 -0.68082,0.70255 -0.68082,0.43918 z M 180.44767,116.24 c -1.07246,-1.14681 -2.38157,-2.82828 -1.68166,-2.16 0.76258,0.72812 3.06523,3.36 2.93969,3.36 -0.0747,0 -0.64081,-0.54 -1.25803,-1.2 z m 160.63149,0.64 c -0.39802,-0.50754 -0.38672,-0.51886 0.12083,-0.12082 0.53303,0.41804 0.70256,0.68082 0.43917,0.68082 -0.0664,0 -0.31843,-0.252 -0.56,-0.56 z m -169.42957,-0.8 -0.60959,-0.72 0.72,0.6096 c 0.67662,0.57287 0.86567,0.8304 0.60959,0.8304 -0.0607,0 -0.38472,-0.324 -0.72,-0.72 z m -25.38433,-0.10667 c 0.0154,-0.37278 0.0912,-0.4486 0.19333,-0.19333 0.0924,0.231 0.0811,0.507 -0.0252,0.61333 -0.10633,0.10634 -0.18196,-0.0827 -0.16807,-0.42 z m 17.25474,0.42503 c 0,-0.088 0.20318,-0.32862 0.45151,-0.53472 0.34787,-0.2887 0.50655,-0.27933 0.6913,0.0408 0.13189,0.22855 0.12196,0.30879 -0.0221,0.17832 -0.14402,-0.13048 -0.45511,-0.0768 -0.6913,0.11918 -0.23619,0.19602 -0.42943,0.2844 -0.42943,0.1964 z m 86.37577,-0.79836 -0.77578,-0.88 0.88,0.77578 c 0.8225,0.72508 1.02675,0.98422 0.77578,0.98422 -0.0573,0 -0.45331,-0.396 -0.88,-0.88 z m 90.26422,-0.08 c -0.18838,-0.352 -0.27053,-0.64 -0.18253,-0.64 0.088,0 0.31415,0.288 0.50253,0.64 0.18839,0.352 0.27053,0.64 0.18253,0.64 -0.088,0 -0.31414,-0.288 -0.50253,-0.64 z m -186.42024,-8.96 c 0,-4.664 0.0447,-6.572 0.0994,-4.24 0.0547,2.332 0.0547,6.148 0,8.48 -0.0547,2.332 -0.0994,0.424 -0.0994,-4.24 z m 16.00487,6.69026 c -0.2815,-0.54435 -0.455,-1.04654 -0.38557,-1.11598 0.0694,-0.0694 0.36572,0.37595 0.65842,0.98974 0.6581,1.38006 0.43008,1.48556 -0.27285,0.12624 z M 177.92,112.96 c -0.18839,-0.352 -0.27052,-0.64 -0.18252,-0.64 0.088,0 0.31413,0.288 0.50252,0.64 0.18838,0.352 0.27051,0.64 0.18251,0.64 -0.088,0 -0.31413,-0.288 -0.50251,-0.64 z m -31.93762,-0.8 c 0.007,-0.528 0.0782,-0.70526 0.15937,-0.39391 0.0811,0.31135 0.0758,0.74335 -0.0119,0.96 -0.0877,0.21665 -0.15404,-0.0381 -0.14752,-0.56609 z m 30.85715,-1.29237 c -0.30879,-0.8047 -0.2177,-1.01234 0.15953,-0.36363 0.18678,0.3212 0.27219,0.65141 0.1898,0.7338 -0.0824,0.0824 -0.23959,-0.0842 -0.34933,-0.37017 z M 247.76069,110.24 c 0.004,-0.704 0.0691,-0.95432 0.14563,-0.55627 0.0765,0.39805 0.0736,0.97405 -0.006,1.28 -0.0801,0.30595 -0.14272,-0.0197 -0.13916,-0.72373 z m -6.13543,-0.66667 c 0.0154,-0.37278 0.0912,-0.4486 0.19333,-0.19333 0.0924,0.231 0.0811,0.507 -0.0252,0.61333 -0.10633,0.10634 -0.18196,-0.0827 -0.16807,-0.42 z M 107.28715,108.48 c 0,-0.792 0.0624,-1.116 0.13868,-0.72 0.0763,0.396 0.0763,1.044 0,1.44 -0.0763,0.396 -0.13868,0.072 -0.13868,-0.72 z m 60.73811,-0.18667 c 0.0154,-0.37278 0.0912,-0.4486 0.19333,-0.19333 0.0924,0.231 0.0811,0.507 -0.0252,0.61333 -0.10633,0.10634 -0.18196,-0.0827 -0.16807,-0.42 z M 390.49916,106.08 c 0.003,-1.056 0.0615,-1.44942 0.13274,-0.87427 0.0712,0.57515 0.0698,1.43915 -0.003,1.92 -0.073,0.48085 -0.13127,0.0103 -0.12948,-1.04573 z m -214.7939,0.93333 c 0.0154,-0.37278 0.0912,-0.4486 0.19333,-0.19333 0.0924,0.231 0.0811,0.507 -0.0252,0.61333 -0.10633,0.10634 -0.18196,-0.0827 -0.16807,-0.42 z M 167.74238,106.4 c 0.007,-0.528 0.0782,-0.70526 0.15937,-0.39391 0.0811,0.31135 0.0758,0.74335 -0.0119,0.96 -0.0877,0.21665 -0.15404,-0.0381 -0.14752,-0.56609 z m 73.90814,-0.16 c 0,-0.44 0.0726,-0.62 0.1614,-0.4 0.0888,0.22 0.0888,0.58 0,0.8 -0.0888,0.22 -0.1614,0.04 -0.1614,-0.4 z m -66.17871,-3.2 c 0,-1.496 0.0551,-2.108 0.12249,-1.36 0.0674,0.748 0.0674,1.972 0,2.72 -0.0674,0.748 -0.12249,0.136 -0.12249,-1.36 z m -128.086547,1.41333 c 0.01536,-0.37278 0.09118,-0.4486 0.193331,-0.19333 0.09244,0.231 0.08107,0.507 -0.02525,0.61333 -0.106336,0.10634 -0.181965,-0.0827 -0.16807,-0.42 z M 266.66242,103.04 c 0,-1.144 0.0581,-1.612 0.12906,-1.04 0.071,0.572 0.071,1.508 0,2.08 -0.071,0.572 -0.12906,0.104 -0.12906,-1.04 z m -24.71716,1.09333 c 0.0154,-0.37278 0.0912,-0.4486 0.19333,-0.19333 0.0924,0.231 0.0811,0.507 -0.0252,0.61333 -0.10633,0.10634 -0.18196,-0.0827 -0.16807,-0.42 z M 28.041332,101.82688 c -0.08604,-0.13922 0.33746,-0.19547 0.941114,-0.12499 0.603655,0.0705 1.097553,0.18438 1.097553,0.25312 0,0.24083 -1.883814,0.12242 -2.038667,-0.12813 z m 289.279988,0 c -0.086,-0.13922 0.33747,-0.19547 0.94112,-0.12499 0.60366,0.0705 1.09755,0.18438 1.09755,0.25312 0,0.24083 -1.88381,0.12242 -2.03867,-0.12813 z M 167.74238,100.32 c 0.007,-0.528 0.0782,-0.705261 0.15937,-0.39391 0.0811,0.31135 0.0758,0.74335 -0.0119,0.96 -0.0877,0.21665 -0.15404,-0.0381 -0.14752,-0.56609 z m 7.96288,-1.306666 c 0.0154,-0.372784 0.0912,-0.448608 0.19333,-0.193334 0.0924,0.230998 0.0811,0.507002 -0.0252,0.613334 -0.10633,0.106333 -0.18196,-0.08267 -0.16807,-0.42 z M 84.595358,96.32 c 0,-1.672 0.05393,-2.356 0.119853,-1.52 0.06592,0.836 0.06592,2.204 0,3.04 -0.06592,0.836 -0.119853,0.152 -0.119853,-1.52 z m 120.320002,0 c 0,-1.672 0.0539,-2.356 0.11985,-1.52 0.0659,0.836 0.0659,2.204 0,3.04 -0.0659,0.836 -0.11985,0.152 -0.11985,-1.52 z m -36.8901,2.053334 c 0.0154,-0.372784 0.0912,-0.448608 0.19333,-0.193334 0.0924,0.230998 0.0811,0.507002 -0.0252,0.613334 -0.10633,0.106333 -0.18196,-0.08267 -0.16807,-0.42 z m 47.04,-0.96 c 0.0154,-0.372784 0.0912,-0.448608 0.19333,-0.193334 0.0924,0.230998 0.0811,0.507002 -0.0252,0.613334 -0.10633,0.106333 -0.18196,-0.08267 -0.16807,-0.42 z M 9.0558923,96 c 0,-0.968 0.059989,-1.364 0.1333088,-0.88 0.07332,0.484 0.07332,1.276 0,1.76 C 9.1158814,97.364 9.0558923,96.968 9.0558923,96 Z M 298.33589,96 c 0,-0.968 0.06,-1.364 0.1333,-0.88 0.0733,0.484 0.0733,1.276 0,1.76 -0.0733,0.484 -0.1333,0.088 -0.1333,-0.88 z m -76.28012,0.08 -0.77577,-0.88 0.88,0.775779 c 0.484,0.426682 0.88,0.822682 0.88,0.88 0,0.25097 -0.25914,0.04671 -0.98423,-0.775779 z m 44.59575,-0.88 c 0.003,-0.88 0.0645,-1.202019 0.1381,-0.7156 0.0736,0.486419 0.0716,1.206419 -0.004,1.6 -0.076,0.393581 -0.13614,-0.0044 -0.13374,-0.8844 z M 146.36216,92.64 c 6.4e-4,-2.112 0.0524,-2.934358 0.11509,-1.827459 0.0627,1.106896 0.0622,2.834896 -0.001,3.84 -0.0633,1.005101 -0.11457,0.09946 -0.11394,-2.012541 z M 169.28,94.514496 c 0,-0.171696 0.22394,-0.591696 0.49765,-0.933334 0.46924,-0.5857 0.4759,-0.575488 0.11665,0.178838 -0.4665,0.97953 -0.6143,1.161069 -0.6143,0.754496 z m 67.06057,-0.848298 c 0.12017,-0.31559 0.2991,-0.49319 0.39762,-0.394665 0.0985,0.09852 2.1e-4,0.356733 -0.21849,0.573801 -0.31603,0.313684 -0.35279,0.276928 -0.17913,-0.179136 z m -58.20213,-0.791936 c 0.31148,-0.575155 1.14012,-1.583155 1.84143,-2.24 l 1.2751,-1.194262 -1.26749,1.44 c -0.69711,0.792 -1.52576,1.8 -1.84143,2.24 -0.55441,0.772787 -0.55467,0.764429 -0.008,-0.245738 z M 215.09052,93.12 c 0,-0.44 0.0726,-0.62 0.16141,-0.4 0.0888,0.22 0.0888,0.58 0,0.8 -0.0888,0.22 -0.16141,0.04 -0.16141,-0.4 z m 30.37474,0.133334 c 0.0154,-0.372784 0.0912,-0.448608 0.19333,-0.193334 0.0924,0.230998 0.0811,0.507002 -0.0252,0.613334 -0.10633,0.106333 -0.18196,-0.08267 -0.16807,-0.42 z m 20.8,-0.96 c 0.0154,-0.372784 0.0912,-0.448608 0.19333,-0.193334 0.0924,0.230998 0.0811,0.507002 -0.0253,0.613334 -0.10633,0.106333 -0.18196,-0.08267 -0.16807,-0.42 z m -14.08,-0.32 c 0.0154,-0.372784 0.0912,-0.448608 0.19333,-0.193334 0.0924,0.230998 0.0811,0.507002 -0.0252,0.613334 -0.10633,0.106333 -0.18196,-0.08267 -0.16807,-0.42 z M 170.56,92.039181 c 0,-0.06645 0.252,-0.318448 0.56,-0.56 0.50754,-0.398039 0.51885,-0.38672 0.12082,0.120819 -0.41804,0.53304 -0.68082,0.702554 -0.68082,0.439181 z m 65.76521,-0.502752 c -0.11727,-0.369491 -1.0229,-1.568343 -2.0125,-2.664115 -1.68041,-1.860682 -1.69868,-1.897172 -0.27658,-0.552314 1.5713,1.485962 2.96374,3.426787 2.66958,3.720947 -0.092,0.09201 -0.26323,-0.135027 -0.3805,-0.504518 z M 265.64616,90.64 c -0.34919,-0.816013 -0.34129,-0.834835 0.10863,-0.258838 0.26687,0.341638 0.4852,0.737638 0.4852,0.88 0,0.486371 -0.21706,0.259315 -0.59383,-0.621162 z M 172.64,89.6 c 0.68743,-0.704 1.32188,-1.28 1.40988,-1.28 0.088,0 -0.40245,0.576 -1.08988,1.28 -0.68744,0.704 -1.32189,1.28 -1.40989,1.28 -0.088,0 0.40245,-0.576 1.08989,-1.28 z m 19.68,0 c -0.616,-0.337245 -0.976,-0.613174 -0.8,-0.613174 0.176,0 0.824,0.275929 1.44,0.613174 0.616,0.337245 0.976,0.613174 0.8,0.613174 -0.176,0 -0.824,-0.275929 -1.44,-0.613174 z m 23.99046,0.01782 c 0.18314,-0.342198 0.49114,-0.719926 0.68445,-0.839398 0.19331,-0.119472 0.10397,0.160508 -0.19852,0.622179 -0.64052,0.977555 -0.9722,1.125821 -0.48593,0.217219 z m 48.18837,-0.508 C 264.15719,88.851421 264.03156,88.64 264.21965,88.64 c 0.18809,0 0.52124,0.216 0.74034,0.48 0.49831,0.600422 0.34155,0.596963 -0.46116,-0.01018 z M 163.92715,87.68 c 0,-0.792 0.0624,-1.116 0.13868,-0.72 0.0763,0.396 0.0763,1.044 0,1.44 -0.0763,0.396 -0.13868,0.072 -0.13868,-0.72 z M 174.4,88.199181 c 0,-0.06645 0.252,-0.318448 0.56,-0.56 0.50754,-0.398039 0.51885,-0.38672 0.12082,0.120819 -0.41804,0.53304 -0.68082,0.702554 -0.68082,0.439181 z m 10.32609,-0.100938 c 0.31135,-0.08113 0.74335,-0.0758 0.96,0.01187 0.21665,0.08766 -0.0381,0.154039 -0.56609,0.147517 -0.528,-0.0065 -0.70526,-0.07824 -0.39391,-0.159373 z m 2.55391,0.0013 c 0.308,-0.08049 0.812,-0.08049 1.12,0 0.308,0.08049 0.056,0.146346 -0.56,0.146346 -0.616,0 -0.868,-0.06586 -0.56,-0.146346 z m 30,0.09977 c 0,-0.06645 0.252,-0.318448 0.56,-0.56 0.50753,-0.398039 0.51885,-0.38672 0.12081,0.120819 -0.41803,0.532931 -0.68081,0.702445 -0.68081,0.439072 z M 195.15918,86.8 c -0.39804,-0.507539 -0.38672,-0.518858 0.12082,-0.120819 0.308,0.241552 0.56,0.493552 0.56,0.56 0,0.263373 -0.26278,0.09386 -0.68082,-0.439181 z M 218.56,87.239181 c 0,-0.06645 0.252,-0.318448 0.56,-0.56 0.50753,-0.398039 0.51885,-0.38672 0.12081,0.120819 -0.41803,0.53304 -0.68081,0.702554 -0.68081,0.439181 z M 244.13577,86.48 l -0.77578,-0.88 0.88,0.775779 c 0.484,0.426682 0.88,0.822682 0.88,0.88 0,0.25097 -0.25913,0.04671 -0.98422,-0.775779 z M 231.36,86.56 c -0.44,-0.251526 -0.64753,-0.462426 -0.46117,-0.468659 0.18637,-0.0062 0.61837,0.20008 0.96,0.458483 0.79008,0.597581 0.53773,0.60273 -0.49883,0.01018 z m 18.85577,-0.4 -0.77578,-0.88 0.88,0.775779 c 0.8225,0.725085 1.02675,0.984221 0.77578,0.984221 -0.0573,0 -0.45331,-0.396 -0.88,-0.88 z M 17.396874,83.36 c 8.32e-4,-1.76 0.05457,-2.439174 0.119415,-1.509274 0.06484,0.929901 0.06416,2.369901 -0.0015,3.2 C 17.449096,85.880826 17.39604,85.12 17.396874,83.36 Z m 127.628336,2.807773 1.18521,-0.124643 0.11313,-1.981565 0.11313,-1.981565 0.0617,2.16 0.0617,2.16 -1.36,-0.05379 -1.36,-0.0538 z M 153.99126,81.2 l 0.0713,-5.2 0.0968,5.028509 0.0968,5.028509 3.11193,0.104518 3.11194,0.104518 -3.28,0.06697 L 153.92,86.4 Z M 177.6,86.08 c 0.264,-0.170611 0.624,-0.310198 0.8,-0.310198 0.176,0 0.104,0.139587 -0.16,0.310198 -0.264,0.170611 -0.624,0.310198 -0.8,0.310198 -0.176,0 -0.104,-0.139587 0.16,-0.310198 z m 16.32,0 c -0.28842,-0.186387 -0.32789,-0.312157 -0.0989,-0.315101 0.20961,-0.0026 0.47011,0.139101 0.57889,0.315101 0.24553,0.39729 0.13475,0.39729 -0.48,0 z m 112.75687,-2.72 c 9.6e-4,-1.76 0.0546,-2.439174 0.11941,-1.509274 0.0648,0.929901 0.0642,2.369901 -0.002,3.2 -0.0657,0.8301 -0.11873,0.06927 -0.1179,-1.690726 z m -64.10761,2.092499 c -0.2589,-0.163734 -0.38742,-0.381011 -0.2856,-0.482832 0.10183,-0.101824 0.36729,0.03435 0.58992,0.302599 0.46163,0.55623 0.37311,0.608652 -0.30432,0.180233 z M 181.06,84.901405 c 0.23099,-0.09244 0.507,-0.08107 0.61333,0.02525 0.10633,0.106333 -0.0827,0.181965 -0.42,0.16807 -0.37278,-0.01536 -0.44861,-0.09118 -0.19333,-0.193331 z m 9.92,0 c 0.23099,-0.09244 0.507,-0.08107 0.61333,0.02525 0.10633,0.106333 -0.0827,0.181965 -0.42,0.16807 -0.37278,-0.01536 -0.44861,-0.09118 -0.19333,-0.193331 z m -8.17391,-0.323162 c 0.31135,-0.08113 0.74335,-0.0758 0.96,0.01187 0.21665,0.08766 -0.0381,0.154039 -0.56609,0.147517 -0.528,-0.0065 -0.70526,-0.07824 -0.39391,-0.159373 z m 6.23391,0.0098 c 0.22,-0.08877 0.58,-0.08877 0.8,0 0.22,0.08877 0.04,0.161405 -0.4,0.161405 -0.44,0 -0.62,-0.07263 -0.4,-0.161405 z M 294.39999,69.12 c 0.264,-0.170611 0.624,-0.310198 0.8,-0.310198 0.176,0 0.104,0.139587 -0.16,0.310198 -0.264,0.170611 -0.624,0.310198 -0.8,0.310198 -0.176,0 -0.104,-0.139587 0.16,-0.310198 z M 4.8742409,68.16 c 0,-0.616 0.065854,-0.868 0.1463433,-0.56 0.080489,0.308 0.080489,0.812 0,1.12 -0.080489,0.308 -0.1463433,0.056 -0.1463433,-0.56 z M 296.95999,68.8 c -0.28841,-0.186387 -0.32788,-0.312157 -0.0989,-0.315101 0.20961,-0.0026 0.47011,0.139101 0.57888,0.315101 0.24554,0.39729 0.13476,0.39729 -0.48,0 z m -2.56,-2.077654 c 0,-0.216778 2.59923,-1.509786 2.74399,-1.365024 0.0671,0.06708 -0.52287,0.435257 -1.31101,0.818166 -0.78813,0.382906 -1.43298,0.628992 -1.43298,0.546858 z m 6,-2.614276 c 0.22,-0.08877 0.58,-0.08877 0.8,0 0.22,0.08877 0.04,0.161405 -0.4,0.161405 -0.44,0 -0.62,-0.07263 -0.4,-0.161405 z"
         id="path244" />
      <path
         style="fill:#ffffff;fill-opacity:1;stroke-width:0.32"
         d="m 421.56578,149.60276 c -1.82636,-0.91012 -6.15609,-4.76903 -7.14352,-6.36673 -1.0856,-1.75655 -0.88454,-2.8655 0.85773,-4.73064 0.836,-0.89496 2.34218,-2.18621 3.34707,-2.86943 1.77114,-1.20422 1.8377,-1.22232 2.1754,-0.59138 0.29504,0.55131 0.19913,0.77636 -0.62708,1.47158 -0.64195,0.54017 -0.9736,1.11183 -0.97011,1.67228 0.0131,2.11797 3.03667,5.25968 6.05171,6.28819 2.37085,0.80875 4.12391,0.63001 6.76116,-0.68936 2.98201,-1.49183 4.80323,-3.30368 5.76675,-5.73708 0.69155,-1.74654 0.75756,-2.44685 0.86848,-9.21467 0.11475,-7.00329 0.0943,-7.31372 -0.46669,-7.07908 -2.82618,1.18215 -4.19968,1.52572 -7.27923,1.82082 -2.91991,0.27981 -4.05181,0.25154 -6.3984,-0.15981 -6.70362,-1.1751 -11.66279,-5.54269 -13.84378,-12.19236 -0.72646,-2.21487 -0.85091,-3.15794 -0.86899,-6.58509 -0.0224,-4.27161 0.40019,-6.352416 1.8864,-9.285274 1.81482,-3.581369 5.13718,-6.537945 8.94979,-7.964425 5.69027,-2.129011 13.30867,-1.286304 16.85968,1.864925 l 1.38486,1.228969 0.80151,-1.642099 c 1.088,-2.229168 2.64134,-3.03839 4.77517,-2.487674 0.80646,0.208141 2.2583,0.775274 3.2263,1.260295 1.38413,0.693517 1.78106,1.062057 1.85856,1.725609 0.0943,0.807229 0.0448,0.836544 -1.14269,0.677264 -2.43859,-0.327084 -2.31309,-1.323785 -2.33779,18.56527 -0.0122,9.71142 -0.13142,20.24914 -0.26525,23.41714 -0.3551,8.4067 -0.59808,8.80531 -8.03283,13.17944 -5.00157,2.9426 -7.59126,4.08804 -10.72,4.74156 -3.04851,0.63677 -3.62499,0.60325 -5.47421,-0.31824 z m 14.43616,-29.93879 c 2.71037,-1.39559 2.71805,-1.43338 2.71805,-13.37062 0,-11.720707 0.0186,-11.617692 -2.47337,-13.811091 -2.8065,-2.470377 -7.83472,-3.5488 -11.2529,-2.413459 -4.94502,1.64247 -8.36826,8.454614 -7.91574,15.75212 0.3126,5.04125 2.17132,9.17761 5.48492,12.20605 2.46167,2.24983 3.67152,2.62045 8.19677,2.51096 3.21322,-0.0777 3.92704,-0.19675 5.24227,-0.87396 z m -186.34735,28.3033 c -1.84946,-0.92162 -6.54791,-5.1607 -7.27207,-6.56106 -0.634,-1.22601 -0.57791,-2.49305 0.16423,-3.71019 0.61887,-1.01499 3.241,-3.25004 5.09714,-4.34471 0.93905,-0.55382 0.97347,-0.55152 1.31558,0.0877 0.29881,0.55833 0.20556,0.77903 -0.62409,1.47714 -1.2482,1.05029 -1.26009,2.10961 -0.0452,4.02532 1.70445,2.68764 5.43002,4.62676 8.35017,4.34617 3.3157,-0.3186 7.32952,-3.13422 8.82478,-6.19042 0.96963,-1.98185 1.36291,-5.6415 1.39638,-12.99405 l 0.0185,-4.05682 -1.84,0.94799 c -1.012,0.52139 -3.04775,1.18557 -4.52389,1.47594 -8.91722,1.75414 -16.6704,-3.21942 -18.48278,-11.85644 -0.66806,-3.18369 -0.28516,-5.38022 2.28514,-13.108762 1.71231,-5.148656 2.06549,-6.553002 1.89081,-7.518192 -0.31788,-1.756416 -0.91672,-2.750483 -2.39828,-3.981149 -1.18503,-0.984355 -1.28824,-1.17823 -0.95685,-1.79744 0.2901,-0.542061 0.56139,-0.652281 1.23866,-0.503261 6.42146,1.412954 8.27369,3.52194 7.98769,9.094954 -0.11357,2.212986 -0.51845,3.912976 -2.17208,9.12 -2.42829,7.64632 -2.61762,9.6136 -1.16397,12.09408 1.85098,3.15844 5.89856,5.02592 10.89323,5.02592 2.89453,0 5.05321,-0.72901 6.27324,-2.11854 l 1.01115,-1.15163 -0.10104,-11.72492 c -0.0994,-11.539844 -0.11282,-11.748865 -0.84849,-13.242676 -0.85762,-1.74145 -2.11631,-2.761946 -3.7295,-3.023728 -1.08488,-0.176055 -1.12304,-0.229744 -1.12304,-1.580375 V 84.8 h 6.57281 6.57281 l -0.19809,25.04 c -0.2169,27.41721 -0.21272,27.3586 -2.10965,29.51909 -0.93294,1.06255 -7.46125,5.19427 -11.05948,6.99945 -2.11952,1.06333 -6.85619,2.44146 -8.39136,2.44146 -0.64976,0 -1.93336,-0.37473 -2.85244,-0.83273 z M 130.52589,125.6473 c -2.5068,-0.89334 -4.66115,-2.31008 -6.03054,-3.96578 -2.16443,-2.61699 -2.57368,-7.40399 -1.00551,-11.76152 0.5067,-1.408 1.59746,-4.432 2.42391,-6.72 1.2492,-3.45839 1.48014,-4.440941 1.36929,-5.82577 -0.2524,-3.153136 -3.04026,-6.288432 -6.96304,-7.83078 -2.72142,-1.070004 -6.61898,-1.015687 -9.05608,0.126204 -1.02083,0.478311 -2.25752,1.155511 -2.74818,1.504893 l -0.8921,0.635235 -0.20197,11.085328 c -0.13501,7.41092 -0.0886,11.61402 0.14011,12.68034 0.53684,2.50316 2.08475,3.96354 4.83822,4.56464 0.78046,0.17037 0.88,0.3362 0.88,1.46601 v 1.2739 l -7.92,-0.003 c -4.356,-0.002 -8.676002,-0.0936 -9.600002,-0.20457 l -1.68,-0.20179 v -1.1933 c 0,-1.14787 0.04815,-1.19975 1.265014,-1.36296 1.659866,-0.22264 3.061437,-1.25422 3.942231,-2.90155 0.706009,-1.32034 0.712755,-1.4662 0.712755,-15.41295 V 87.52 l -1.36,0.06059 c -1.165699,0.05193 -1.36,-0.03059 -1.36,-0.577706 0,-0.459779 0.469837,-0.851661 1.68,-1.401251 2.754152,-1.250787 4.361432,-1.542963 5.828482,-1.05952 1.39983,0.461296 2.73152,2.092173 2.73152,3.345213 0,0.413974 0.0671,0.752678 0.1492,0.752678 0.0821,0 1.03306,-0.571267 2.11334,-1.269482 7.53926,-4.87286 16.7621,-3.894422 21.27791,2.257344 1.55837,2.122922 2.90786,5.41258 3.37114,8.217808 0.50128,3.035396 0.11322,4.922516 -2.28987,11.135516 -2.25205,5.82246 -2.81702,8.64375 -2.24384,11.20498 0.45757,2.04464 1.94743,3.78358 3.54161,4.13372 0.84826,0.18631 0.98262,0.34617 0.89892,1.06958 -0.13294,1.14897 -1.12383,1.21598 -3.81252,0.25783 z m -48.380663,-1.92558 c -1.61879,-0.45384 -3.179878,-1.7027 -3.934845,-3.14785 l -0.452476,-0.86614 -1.518954,0.93747 c -2.359555,1.45626 -5.086125,2.03296 -9.678953,2.04721 -6.330707,0.0196 -9.894976,-1.38734 -13.722742,-5.41698 -3.756912,-3.95505 -5.18944,-7.79969 -5.184948,-13.91543 0.0044,-6.040816 1.488128,-10.064883 5.009191,-13.585946 3.532355,-3.532355 7.51351,-5.060732 13.258499,-5.089974 4.796483,-0.02442 7.878076,1.004838 10.604639,3.541952 l 0.844644,0.785955 0.791414,-1.728681 c 0.610531,-1.333575 1.067085,-1.859492 1.997533,-2.301018 1.537539,-0.72961 2.762854,-0.537766 5.811059,0.909821 1.972451,0.93671 2.35071,1.241824 2.35071,1.896147 0,0.73297 -0.100893,0.777158 -1.68,0.735773 l -1.68,-0.04403 -0.206115,2.88 c -0.113363,1.584 -0.221142,8.064 -0.239504,14.400001 -0.03008,10.37458 0.02224,11.62974 0.526115,12.62373 0.369354,0.72863 0.885763,1.19226 1.519504,1.36421 1.605789,0.4357 2.370256,0.0545 3.044301,-1.51797 0.560704,-1.30808 0.709395,-1.42997 1.744326,-1.42997 0.695514,0 1.128666,0.1541 1.124346,0.4 -0.01021,0.58116 -1.154355,3.01462 -1.928646,4.10201 -1.579892,2.21875 -5.296608,3.28951 -8.399098,2.41971 z m -8.081859,-5.32494 c 2.977037,-1.4981 2.88351,-1.08228 2.988854,-13.28849 0.08756,-10.14452 0.05989,-10.749234 -0.545968,-11.936821 -0.825683,-1.618474 -2.244809,-2.798224 -4.820719,-4.007565 -1.679975,-0.788714 -2.602077,-0.999146 -4.848983,-1.10657 -2.443459,-0.116825 -2.982064,-0.03763 -4.513952,0.663687 -4.416758,2.022061 -7.273142,7.645555 -7.273142,14.318979 0,7.53442 3.993939,14.21308 9.590541,16.03729 0.44,0.14341 2.384,0.22825 4.32,0.18852 3.026278,-0.0621 3.742086,-0.184 5.103369,-0.86903 z m 78.038072,5.32107 c -2.7883,-0.91169 -4.56146,-3.11295 -5.39125,-6.69292 -0.47372,-2.04374 -0.50874,-3.76446 -0.30903,-15.18493 l 0.22523,-12.88 h -2.28909 c -3.52521,0 -4.94257,1.030835 -5.99116,4.357325 -0.45236,1.435075 -0.66745,1.722675 -1.28836,1.722675 -0.67777,0 -0.73014,-0.108797 -0.57763,-1.2 0.27099,-1.938918 0.79985,-6.588214 0.79985,-7.031606 0,-0.312416 1.09046,-0.408394 4.64,-0.408394 h 4.64 v -5.080819 c 0,-5.37136 -0.15995,-5.978071 -1.44,-5.462125 -1.09136,0.439888 -1.44,0.331014 -1.44,-0.449683 0,-0.617763 0.38705,-0.930567 2.16,-1.745632 2.87703,-1.32264 4.40829,-1.531517 5.84,-0.796631 1.94715,0.999463 2.23893,2.06457 2.2395,8.17489 l 5e-4,5.36 h 4.96 4.96 v 1.28 1.28 h -4.92335 -4.92336 l -0.23532,9.413299 c -0.29731,11.893361 -0.1382,17.291531 0.54787,18.587461 0.90079,1.7015 1.75756,2.23924 3.56775,2.23924 1.69596,0 3.2426,-0.71851 5.51829,-2.56361 l 0.99188,-0.8042 0.8511,0.66948 c 0.8432,0.66326 0.84588,0.67839 0.28812,1.62965 -0.94036,1.6038 -3.81452,4.09443 -5.74463,4.97807 -2.19286,1.00392 -5.63342,1.27661 -7.67691,0.60846 z m 50.36378,0.004 c -1.61879,-0.45384 -3.17987,-1.7027 -3.93484,-3.14785 l -0.45248,-0.86614 -1.51895,0.93747 c -2.41256,1.48898 -5.06765,2.03343 -9.99895,2.0504 -3.70512,0.0127 -4.61606,-0.0893 -6.4,-0.71684 -8.93496,-3.14312 -13.85764,-12.52423 -12.01041,-22.888152 1.47825,-8.293709 7.78671,-13.814634 16.5554,-14.488646 4.77995,-0.367418 8.63468,0.668912 11.51179,3.094892 l 1.49678,1.26209 0.77928,-1.70216 c 0.59834,-1.306947 1.05931,-1.835043 1.98539,-2.274496 1.53754,-0.72961 2.76285,-0.537766 5.81106,0.909821 1.97245,0.93671 2.35071,1.241824 2.35071,1.896147 0,0.73297 -0.1009,0.777158 -1.68,0.735773 l -1.68,-0.04403 -0.20612,2.88 c -0.11336,1.584 -0.22114,8.064 -0.2395,14.400001 -0.0301,10.37458 0.0222,11.62974 0.52611,12.62373 0.36936,0.72863 0.88576,1.19226 1.51951,1.36421 1.60578,0.4357 2.37025,0.0545 3.0443,-1.51797 0.5607,-1.30808 0.70939,-1.42997 1.74432,-1.42997 0.69552,0 1.12867,0.1541 1.12435,0.4 -0.0102,0.58116 -1.15436,3.01462 -1.92865,4.10201 -1.57989,2.21875 -5.29661,3.28951 -8.3991,2.41971 z m -8.08185,-5.32637 c 2.98086,-1.49733 2.88503,-1.06682 2.97809,-13.37829 0.0807,-10.677102 0.0747,-10.788794 -0.64184,-12.042177 -2.09618,-3.666461 -8.90468,-5.974579 -13.30881,-4.51176 -5.76843,1.915962 -9.2892,10.705517 -7.56941,18.896877 0.87813,4.18248 3.67777,8.71844 6.43159,10.42039 2.01846,1.24748 3.59709,1.57579 7.16701,1.49054 2.8413,-0.0679 3.60443,-0.20302 4.94337,-0.87558 z m 30.09663,5.42634 c -3.83795,-0.59156 -7.73615,-3.33345 -9.23757,-6.49746 -0.72877,-1.53577 -0.65401,-2.29428 0.30009,-3.04477 0.8862,-0.69709 3.31431,-1.19962 4.18392,-0.86592 0.47498,0.18227 0.45614,0.27785 -0.16966,0.86087 -1.12863,1.05148 -0.27827,2.84837 2.13308,4.50742 3.4902,2.40132 8.1027,2.47236 10.57617,0.1629 2.44088,-2.27904 2.20359,-5.38602 -0.62338,-8.16217 -1.69544,-1.66496 -3.0645,-2.53644 -8.30339,-5.28552 -4.8348,-2.53705 -6.98288,-4.54047 -7.7929,-7.26809 -0.63109,-2.125107 -0.63822,-3.508259 -0.0301,-5.842899 1.25707,-4.82623 4.62904,-7.144451 10.27662,-7.065149 3.74023,0.05252 6.09491,1.021892 8.39831,3.457396 3.48991,3.690067 3.25814,5.412611 -0.81943,6.090006 -1.74111,0.289248 -2.26904,-0.02102 -1.40518,-0.825834 0.54704,-0.509648 0.60016,-0.753529 0.32295,-1.482662 C 231.16518,89.602605 229.25134,88.32 225.96307,88.32 c -3.37471,0 -5.17109,1.562515 -5.15054,4.48 0.0222,3.148851 2.2657,5.229424 9.86829,9.15155 2.5964,1.33947 4.84005,2.74732 5.70205,3.57794 3.56026,3.43067 4.11667,9.19382 1.29278,13.39022 -2.60994,3.87844 -7.66143,5.755 -13.19565,4.90198 z m 127.35999,6.4e-4 c -3.05264,-0.47133 -5.73875,-1.97577 -8.48361,-4.75154 -5.03997,-5.09665 -7.66151,-13.33327 -6.29066,-19.764515 0.73539,-3.45007 1.97056,-5.713293 4.5273,-8.295523 6.67321,-6.739734 17.07571,-8.651517 23.95216,-4.401958 5.50377,3.401257 10.15334,11.928934 10.12924,18.577836 -0.007,2.01577 -0.75091,5.46112 -1.58627,7.3496 -3.19622,7.22559 -13.77856,12.59382 -22.24816,11.2861 z m 11.58819,-4.24922 c 3.92884,-2.0061 5.5626,-4.51175 5.78471,-8.87173 0.17257,-3.38748 -0.59997,-6.50763 -2.6496,-10.70126 -2.91178,-5.957547 -6.32007,-10.058046 -9.61335,-11.565752 -1.50444,-0.688765 -2.14892,-0.802883 -3.93456,-0.696688 -2.58841,0.153939 -5.42771,1.36777 -7.20249,3.079168 -4.08554,3.939584 -3.92397,9.918562 0.50765,18.783272 2.68889,5.3787 5.40947,8.55148 8.69414,10.13925 1.73907,0.84065 2.19974,0.92683 4.34531,0.81294 1.78922,-0.095 2.82455,-0.34418 4.06819,-0.9792 z m 101.96413,4.13476 c -8.80915,-1.67825 -14.71533,-10.08926 -14.06339,-20.02775 0.23417,-3.57019 0.87837,-5.995304 2.42256,-9.119995 2.22195,-4.496077 5.52845,-7.470506 9.74544,-8.766701 7.73865,-2.378682 14.96461,0.24639 18.3951,6.682653 l 1.02551,1.924048 h -3.15988 -3.1599 l -0.73027,-1.761943 c -2.33959,-5.644636 -10.04426,-6.354352 -13.87459,-1.278057 -1.19725,1.586688 -2.24,4.428755 -2.61232,7.12 l -0.18813,1.36 h 4.96377 4.96378 v 1.599995 1.6 h -5.0081 -5.00809 l 0.21097,3.12 c 0.4842,7.16028 2.5034,11.39618 6.41642,13.46031 1.45341,0.76668 1.97411,0.85923 4.83552,0.85945 2.96438,2.3e-4 3.3647,-0.0775 5.29686,-1.02872 1.4098,-0.69404 2.77956,-1.74312 4.20839,-3.22311 l 2.11827,-2.19417 1.11299,0.67171 1.11296,0.6717 -0.66032,0.95142 c -1.12877,1.62645 -3.84944,4.29926 -5.35587,5.26166 -3.30861,2.11376 -8.54928,2.96688 -13.00768,2.1175 z M 9.3599998,122.6402 0.31999999,122.55003 v -1.06882 -1.06883 L 2.6957754,120.2327 C 5.614189,120.01198 7.127724,119.32916 8.0749557,117.80593 8.7793713,116.67317 8.8057985,116.33045 9.0038181,105.76 9.1159179,99.776 9.2239179,89.228 9.243818,82.32 9.2788436,70.161389 9.259547,69.739546 8.6399998,69.12 7.941675,68.421674 6.7115282,68.290758 5.7389628,68.811258 c -0.5586759,0.298995 -0.6189629,0.219046 -0.6189629,-0.82082 0,-1.118358 0.06791,-1.18343 2.3199999,-2.223036 4.2666062,-1.969543 6.8760232,-2.000711 8.7719562,-0.104778 l 1.085843,1.085843 2.4711,-1.213142 c 3.507472,-1.72193 5.969485,-2.271264 10.3111,-2.300666 5.643053,-0.03821 8.66105,1.104839 12.841939,4.863818 3.393421,3.050979 3.314691,5.626032 -0.291702,9.540969 -1.422582,1.544295 -1.570083,1.622832 -2.541366,1.353149 l -1.03113,-0.286297 0.629933,-1.033149 c 0.85864,-1.40825 0.843782,-4.074275 -0.0328,-5.885053 -0.904682,-1.868822 -3.462375,-4.099581 -5.461866,-4.763702 -1.188956,-0.394909 -2.339075,-0.503392 -4.265113,-0.402301 -4.718663,0.247667 -8.267363,2.729808 -10.557958,7.384774 -1.678242,3.410538 -2.077919,5.838208 -2.08438,12.660669 l -0.0056,5.867539 3.657742,-0.107539 c 3.090582,-0.09086 3.794579,-0.20984 4.540228,-0.767309 1.345506,-1.005939 2.001445,-2.055773 2.436877,-3.900227 0.360177,-1.525677 0.477837,-1.68 1.280881,-1.68 h 0.884271 v 7.860275 7.860275 l -1.032917,-0.10027 c -0.946932,-0.0919 -1.052544,-0.21611 -1.268689,-1.49177 -0.319572,-1.886065 -1.193238,-3.551633 -2.280651,-4.34786 -0.760848,-0.557108 -1.475528,-0.677504 -4.56,-0.768186 L 17.28,94.984925 v 10.486505 c 0,9.93447 0.0347,10.5582 0.659234,11.8483 0.839248,1.73366 2.512937,2.58399 5.662074,2.87667 l 2.318691,0.2155 v 1.23405 1.23405 L 22.16,122.80519 c -2.068,-0.0412 -7.828,-0.11539 -12.8000002,-0.16499 z m 286.8799902,1.6e-4 -6.64,-0.0934 v -1.06731 -1.06732 l 2.37578,-0.17968 c 2.91841,-0.22072 4.43195,-0.90354 5.37918,-2.42677 0.70442,-1.13276 0.73084,-1.47548 0.92886,-12.04593 0.1121,-5.984 0.2201,-16.52639 0.24,-23.427533 l 0.0362,-12.547536 -0.72,-0.677603 c -0.7124,-0.670454 -1.74496,-0.715731 -3.2,-0.140317 -0.4679,0.18504 -0.56,0.03993 -0.56,-0.882313 0,-1.063888 0.0896,-1.145581 2.48,-2.260788 2.86493,-1.336595 5.26227,-1.941894 6.65783,-1.681024 0.53851,0.100663 1.51048,0.728276 2.1634,1.396919 l 1.18556,1.214131 2.47661,-1.215875 c 3.51297,-1.724679 5.97326,-2.273991 10.3166,-2.303402 5.64304,-0.03821 8.66106,1.104839 12.84196,4.863818 3.3934,3.050979 3.31468,5.626032 -0.29172,9.540969 -1.42259,1.544295 -1.57008,1.622832 -2.54137,1.353149 l -1.03114,-0.286297 0.62995,-1.033149 c 0.85863,-1.40825 0.84378,-4.074275 -0.0328,-5.885053 -0.9047,-1.868822 -3.46236,-4.099581 -5.46185,-4.763702 -1.18896,-0.394909 -2.33911,-0.503392 -4.26513,-0.402301 -4.71866,0.247667 -8.26737,2.729808 -10.55796,7.384774 -1.67824,3.410538 -2.07792,5.838208 -2.08438,12.660669 l -0.006,5.867539 3.65775,-0.107539 c 3.09058,-0.09086 3.79457,-0.20984 4.54022,-0.767309 1.34551,-1.005939 2.00145,-2.055773 2.43688,-3.900227 0.36018,-1.525677 0.47784,-1.68 1.28088,-1.68 h 0.88427 v 7.860275 7.860275 l -1.03291,-0.10027 c -0.94694,-0.0919 -1.05255,-0.21611 -1.26869,-1.49177 -0.31957,-1.886065 -1.19324,-3.551633 -2.28065,-4.34786 -0.76085,-0.557108 -1.47553,-0.677504 -4.56,-0.768186 l -3.65775,-0.107539 v 10.437815 c 0,11.17421 0.0753,11.78008 1.63876,13.17785 0.94313,0.8432 2.40799,1.30801 5.00124,1.58695 l 2,0.21513 v 1.23866 1.23867 l -6.16,-0.0731 c -3.388,-0.0402 -9.148,-0.11515 -12.8,-0.1665 z m 85.44,3.2e-4 -4.4,-0.0988 v -1.23007 c 0,-1.17307 0.0556,-1.2392 1.2,-1.42703 1.76384,-0.28951 3.15824,-1.28004 3.98711,-2.83229 0.72697,-1.36146 0.7336,-1.4837 0.81859,-15.13255 0.0514,-8.251094 -0.0353,-13.944524 -0.21651,-14.220899 -0.24455,-0.372921 -0.52048,-0.393907 -1.4457,-0.109952 -1.08989,0.33449 -1.14349,0.315149 -1.14349,-0.412601 0,-0.887354 1.33757,-1.683303 4.25303,-2.530848 2.22313,-0.646282 3.6166,-0.313319 4.85673,1.160476 l 0.81069,0.96346 1.99978,-0.731456 c 3.02707,-1.107213 7.13987,-1.057981 9.51977,0.113955 3.89437,1.917686 6.39306,5.080518 5.75936,7.290128 -0.38144,1.329936 -0.82131,1.837363 -2.54201,2.932387 -1.73031,1.101133 -1.79239,1.104051 -2.44061,0.114765 -0.48647,-0.742461 -0.47719,-0.84248 0.15264,-1.643155 1.37664,-1.750135 0.54377,-4.953508 -1.57242,-6.04784 -2.75475,-1.424525 -6.17603,-0.785949 -8.15101,1.52136 -2.24899,2.627443 -2.38774,3.468288 -2.48195,15.04153 l -0.084,10.31878 0.8,1.41165 c 0.98157,1.73202 2.13562,2.62062 3.73927,2.87918 1.17049,0.18871 1.2248,0.25262 1.31913,1.55299 l 0.0984,1.35618 -5.2184,-0.0702 c -2.87011,-0.0386 -7.1984,-0.11467 -9.6184,-0.16903 z"
         id="path242" />
    </g>
  </g>
</svg>
